<?xml version="1.0" encoding="UTF-8" standalone="no"?>
<!-- Created with Inkscape (http://www.inkscape.org/) -->

<svg
   xmlns:dc="http://purl.org/dc/elements/1.1/"
   xmlns:cc="http://creativecommons.org/ns#"
   xmlns:rdf="http://www.w3.org/1999/02/22-rdf-syntax-ns#"
   xmlns:svg="http://www.w3.org/2000/svg"
   xmlns="http://www.w3.org/2000/svg"
   xmlns:sodipodi="http://sodipodi.sourceforge.net/DTD/sodipodi-0.dtd"
   xmlns:inkscape="http://www.inkscape.org/namespaces/inkscape"
   width="210mm"
   height="297mm"
   viewBox="0 0 210 297"
   version="1.1"
   id="svg990"
   inkscape:version="0.92.3 (2405546, 2018-03-11)"
   sodipodi:docname="bra1.svg">
  <defs
     id="defs984" />
  <sodipodi:namedview
     id="base"
     pagecolor="#ffffff"
     bordercolor="#666666"
     borderopacity="1.0"
     inkscape:pageopacity="0.0"
     inkscape:pageshadow="2"
     inkscape:zoom="0.35"
     inkscape:cx="350"
     inkscape:cy="560"
     inkscape:document-units="mm"
     inkscape:current-layer="layer1"
     showgrid="false"
     inkscape:window-width="1366"
     inkscape:window-height="705"
     inkscape:window-x="-8"
     inkscape:window-y="-8"
     inkscape:window-maximized="1" />
  <metadata
     id="metadata987">
    <rdf:RDF>
      <cc:Work
         rdf:about="">
        <dc:format>image/svg+xml</dc:format>
        <dc:type
           rdf:resource="http://purl.org/dc/dcmitype/StillImage" />
        <dc:title></dc:title>
      </cc:Work>
    </rdf:RDF>
  </metadata>
  <g
     inkscape:label="Layer 1"
     inkscape:groupmode="layer"
     id="layer1">
    <g
       id="g1639"
       transform="matrix(1.3420647,0,0,1.4535174,-72.592404,-67.164227)">
      <rect
         id="rect2"
         height="57.414585"
         width="5.0270834"
         stroke-miterlimit="10"
         y="61.775967"
         x="66.245651"
         style="fill:#d49b9b;stroke:#000000;stroke-width:0.79374999;stroke-miterlimit:10" />
      <rect
         id="rect4"
         height="57.414585"
         width="5.0270834"
         stroke-miterlimit="10"
         y="61.775967"
         x="196.33441"
         style="fill:#d49b9b;stroke:#000000;stroke-width:0.79374999;stroke-miterlimit:10" />
      <path
         id="path6"
         d="m 58.308157,159.6718 3.175,35.71875 c 0,0 10.31875,5.02708 19.84375,-0.52917 0,0 -24.077083,-36.5125 -23.01875,-35.18958 z"
         stroke-miterlimit="10"
         style="fill:#f2b6b6;stroke:#000000;stroke-width:0.79374999;stroke-miterlimit:10"
         inkscape:connector-curvature="0" />
      <path
         id="path8"
         d="m 209.56357,159.6718 -3.175,35.71875 c 0,0 -10.31875,5.02708 -19.84375,-0.52917 0,0 24.07708,-36.5125 23.01875,-35.18958 z"
         stroke-miterlimit="10"
         style="fill:#f2b6b6;stroke:#000000;stroke-width:0.79374999;stroke-miterlimit:10"
         inkscape:connector-curvature="0" />
      <path
         id="path10"
         d="m 128.68732,176.60513 h 11.29083 c 0,0 5.64251,9.78958 8.28834,13.75833 0,0 -9.78958,-10.31875 -28.83958,-0.52916 z"
         stroke-miterlimit="10"
         style="fill:#d49b9b;stroke:#000000;stroke-width:0.79374999;stroke-miterlimit:10"
         inkscape:connector-curvature="0" />
      <path
         id="path12"
         d="m 58.043574,159.93638 c 0,0 0.263525,32.27917 31.894197,37.04167 0,0 29.785729,5.82083 38.220389,-20.10834 0,0 -20.29646,21.43125 -38.220389,14.81667 0,0 -19.505612,-1.05833 -31.894197,-31.75 z"
         stroke-miterlimit="10"
         style="fill:#d49b9b;stroke:#000000;stroke-width:0.79374999;stroke-miterlimit:10"
         inkscape:connector-curvature="0" />
      <path
         id="path14"
         d="m 71.272741,119.19055 c 0,0 8.73125,15.34583 26.193748,20.90208 17.462501,5.55625 30.691671,19.57917 30.691671,36.77708 0,0 -6.61459,20.90209 -37.835421,18.25625 0,0 -52.122915,-8.73125 -24.077082,-75.93541 z"
         stroke-miterlimit="10"
         style="fill:#f8d9d9;stroke:#000000;stroke-width:0.79374999;stroke-miterlimit:10"
         inkscape:connector-curvature="0" />
      <path
         id="path16"
         d="m 209.56357,159.93638 c 0,0 -0.26353,32.27917 -31.8942,37.04167 0,0 -29.78573,5.82083 -38.22039,-20.10834 0,0 20.29645,21.43125 38.22039,14.81667 0,0 19.50561,-1.05833 31.8942,-31.75 z"
         stroke-miterlimit="10"
         style="fill:#d49b9b;stroke:#000000;stroke-width:0.79374999;stroke-miterlimit:10"
         inkscape:connector-curvature="0" />
      <path
         id="path18"
         d="m 196.3344,119.19055 c 0,0 -8.73125,15.34583 -26.19375,20.90208 -17.4625,5.55625 -30.69167,19.57917 -30.69167,36.77708 0,0 6.61459,20.90209 37.83542,18.25625 0,0 52.12292,-8.73125 24.07708,-75.93541 z"
         stroke-miterlimit="10"
         style="fill:#f8d9d9;stroke:#000000;stroke-width:0.79374999;stroke-miterlimit:10"
         inkscape:connector-curvature="0" />
      <path
         id="path94"
         d="m 196.06982,61.775965 -61.56166,72.231245 c 0,0 1.5875,1.85209 2.11666,3.96875 L 201.0969,61.775965 Z"
         stroke-miterlimit="10"
         style="fill:#d49b9b;stroke:#000000;stroke-width:0.79374999;stroke-miterlimit:10"
         inkscape:connector-curvature="0" />
      <path
         id="path96"
         d="m 71.537324,62.040548 60.324996,71.702082 c 0,0 -1.5875,1.5875 -2.11666,3.57188 L 66.510241,62.040548 Z"
         stroke-miterlimit="10"
         style="fill:#d49b9b;stroke:#000000;stroke-width:0.79374999;stroke-miterlimit:10"
         inkscape:connector-curvature="0" />
      <path
         id="path98"
         d="m 130.80399,138.24055 h 4.49792 c 0,0 32.54374,28.83958 73.55416,28.83958 l -2.4675,28.31042 c 0,0 -76.37833,-3.43959 -144.905413,0 l -2.645833,-29.10417 c 0,0 41.010415,3.175 71.966666,-28.04583 z"
         stroke-miterlimit="10"
         style="fill:#f2b6b6;stroke:#000000;stroke-width:0.79374999;stroke-miterlimit:10"
         inkscape:connector-curvature="0" />
      <ellipse
         id="ellipse100"
         ry="3.3072917"
         rx="3.7041667"
         cy="137.04993"
         cx="133.18524"
         stroke-miterlimit="10"
         style="fill:#f2b6b6;stroke:#000000;stroke-width:0.79374999;stroke-miterlimit:10" />
      <line
         id="line102"
         y2="191.68639"
         x2="206.12399"
         y1="192.21555"
         x1="61.13232"
         stroke-miterlimit="10"
         style="fill:#f2b6b6;stroke:#000000;stroke-width:0.79374999;stroke-miterlimit:10" />
      <rect
         id="rect108"
         height="10.583333"
         width="64.029167"
         y="207.56139"
         x="111.40315"
         style="fill:none;stroke-width:0.26458332" />
      <text
         id="text110"
         font-size="36"
         style="font-size:9.52499962px;font-family:MyriadPro-Regular;stroke-width:0.26458332"
         x="111.40315"
         y="214.32402">Back view</text>
    </g>
  </g>
</svg>
