<?xml version="1.0" encoding="UTF-8" standalone="no"?>
<!-- Created with Inkscape (http://www.inkscape.org/) -->

<svg
   xmlns:dc="http://purl.org/dc/elements/1.1/"
   xmlns:cc="http://creativecommons.org/ns#"
   xmlns:rdf="http://www.w3.org/1999/02/22-rdf-syntax-ns#"
   xmlns:svg="http://www.w3.org/2000/svg"
   xmlns="http://www.w3.org/2000/svg"
   xmlns:sodipodi="http://sodipodi.sourceforge.net/DTD/sodipodi-0.dtd"
   xmlns:inkscape="http://www.inkscape.org/namespaces/inkscape"
   width="210mm"
   height="297mm"
   viewBox="0 0 300 350"
   version="1.1"
   id="svg1690"
   inkscape:version="0.92.3 (2405546, 2018-03-11)"
   sodipodi:docname="bra2.svg">
  <defs
     id="defs1684" />
  <sodipodi:namedview
     id="base"
     pagecolor="#ffffff"
     bordercolor="#666666"
     borderopacity="1.0"
     inkscape:pageopacity="0.0"
     inkscape:pageshadow="2"
     inkscape:zoom="0.35"
     inkscape:cx="350"
     inkscape:cy="560"
     inkscape:document-units="mm"
     inkscape:current-layer="layer1"
     showgrid="false"
     inkscape:window-width="1366"
     inkscape:window-height="705"
     inkscape:window-x="-8"
     inkscape:window-y="-8"
     inkscape:window-maximized="1" />
  <metadata
     id="metadata1687">
    <rdf:RDF>
      <cc:Work
         rdf:about="">
        <dc:format>image/svg+xml</dc:format>
        <dc:type
           rdf:resource="http://purl.org/dc/dcmitype/StillImage" />
        <dc:title></dc:title>
      </cc:Work>
    </rdf:RDF>
  </metadata>
  <g
     inkscape:label="Layer 1"
     inkscape:groupmode="layer"
     id="layer1">
    <g
       id="g2477"
       transform="matrix(1.3646561,0,0,1.4644004,4.7692449,-105.83699)">
      <path
         id="path20"
         d="M 135.82042,76.876116 74.25875,149.10737 c 0,0 1.5875,1.85208 2.116667,3.96875 L 140.8475,76.876116 Z"
         stroke-miterlimit="10"
         style="fill:#d49b9b;stroke:#000000;stroke-width:0.79374999;stroke-miterlimit:10"
         inkscape:connector-curvature="0" />
      <path
         id="path22"
         d="m 11.287918,77.140699 60.324999,71.702081 c 0,0 -1.5875,1.5875 -2.116667,3.57188 L 6.260835,77.140699 Z"
         stroke-miterlimit="10"
         style="fill:#d49b9b;stroke:#000000;stroke-width:0.79374999;stroke-miterlimit:10"
         inkscape:connector-curvature="0" />
      <path
         id="path24"
         d="M 70.554583,153.3407 H 75.0525 c 0,0 32.54375,28.83958 73.55417,28.83958 l -2.4675,28.31042 c 0,0 -76.378337,-3.43959 -144.9054184,0 l -2.6458333,-29.10417 c 0,0 41.0104147,3.175 71.9666647,-28.04583 z"
         stroke-miterlimit="10"
         style="fill:#f8d9d9;stroke:#000000;stroke-width:0.79374999;stroke-miterlimit:10"
         inkscape:connector-curvature="0" />
      <path
         id="path26"
         d="m 68.437917,191.70528 h 11.290829 c 0,0 5.642504,9.78958 8.288337,13.75833 0,0 -9.789583,-10.31875 -28.839583,-0.52916 z"
         stroke-miterlimit="10"
         style="fill:#d49b9b;stroke:#000000;stroke-width:0.79374999;stroke-miterlimit:10"
         inkscape:connector-curvature="0" />
      <path
         id="path28"
         d="m -1.9412484,174.77195 3.175,35.71875 c 0,0 10.3187494,5.02708 19.8437494,-0.52917 0,0 -24.0770827,-36.5125 -23.0187494,-35.18958 z"
         stroke-miterlimit="10"
         style="fill:#f2b6b6;stroke:#000000;stroke-width:0.79374999;stroke-miterlimit:10"
         inkscape:connector-curvature="0" />
      <path
         id="path30"
         d="m -2.2058317,175.03653 c 0,0 0.2637896,32.27917 31.8941967,37.04167 0,0 29.785468,5.82083 38.220385,-20.10834 0,0 -20.296188,21.43125 -38.220385,14.81667 2.64e-4,0 -19.505612,-1.05833 -31.8941967,-31.75 z"
         stroke-miterlimit="10"
         style="fill:#d49b9b;stroke:#000000;stroke-width:0.79374999;stroke-miterlimit:10"
         inkscape:connector-curvature="0" />
      <path
         id="path32"
         d="m 11.023335,134.2907 c 0,0 8.73125,15.34583 26.193748,20.90208 17.4625,5.55625 30.691667,19.57917 30.691667,36.77708 0,0 -6.614583,20.90209 -37.835417,18.25625 0,0 -52.122915,-8.73125 -24.0770814,-75.93541 z"
         stroke-miterlimit="10"
         style="fill:#f2b6b6;stroke:#000000;stroke-width:0.79374999;stroke-miterlimit:10"
         inkscape:connector-curvature="0" />
      <rect
         id="rect34"
         height="57.414585"
         width="5.0270834"
         stroke-miterlimit="10"
         y="76.876114"
         x="5.9962516"
         style="fill:#d49b9b;stroke:#000000;stroke-width:0.79374999;stroke-miterlimit:10" />
      <path
         id="path36"
         d="m 149.31417,174.77195 -3.175,35.71875 c 0,0 -10.31875,5.02708 -19.84375,-0.52917 0,0 24.07708,-36.5125 23.01875,-35.18958 z"
         stroke-miterlimit="10"
         style="fill:#f2b6b6;stroke:#000000;stroke-width:0.79374999;stroke-miterlimit:10"
         inkscape:connector-curvature="0" />
      <path
         id="path38"
         d="m 149.31417,175.03653 c 0,0 -0.26353,32.27917 -31.8942,37.04167 0,0 -29.785739,5.82083 -38.220391,-20.10834 0,0 20.296448,21.43125 38.220391,14.81667 0,0 19.50561,-1.05833 31.8942,-31.75 z"
         stroke-miterlimit="10"
         style="fill:#d49b9b;stroke:#000000;stroke-width:0.79374999;stroke-miterlimit:10"
         inkscape:connector-curvature="0" />
      <path
         id="path40"
         d="m 137.14333,134.2907 c 0,0 -8.73125,15.34583 -26.19375,20.90208 -17.462501,5.55625 -30.691668,19.57917 -30.691668,36.77708 0,0 6.614584,20.90209 37.835418,18.25625 0,0 52.12292,-8.73125 24.07709,-75.93541 z"
         stroke-miterlimit="10"
         style="fill:#f2b6b6;stroke:#000000;stroke-width:0.79374999;stroke-miterlimit:10"
         inkscape:connector-curvature="0" />
      <rect
         id="rect42"
         height="57.414585"
         width="5.0270834"
         stroke-miterlimit="10"
         y="76.876114"
         x="136.08501"
         style="fill:#d49b9b;stroke:#000000;stroke-width:0.79374999;stroke-miterlimit:10" />
      <g
         id="g48"
         transform="matrix(0.26458333,0,0,0.26458333,-6.7900025,47.771949)">
        <path
           id="path44"
           d="m 139.326,614 c 0,0 -13,-18 -13,-39"
           inkscape:connector-curvature="0"
           style="fill:#f2b6b6" />
        <path
           id="path46"
           d="m 138.103,614.867 c 0,0 -0.091,-0.141 -0.26,-0.404 -0.178,-0.275 -0.421,-0.672 -0.719,-1.172 -0.598,-1.004 -1.421,-2.445 -2.319,-4.216 -0.458,-0.881 -0.927,-1.848 -1.404,-2.878 -0.5,-1.019 -0.941,-2.134 -1.444,-3.263 -0.453,-1.151 -0.942,-2.331 -1.377,-3.553 -0.419,-1.229 -0.888,-2.458 -1.245,-3.728 -0.391,-1.257 -0.763,-2.518 -1.056,-3.779 -0.156,-0.627 -0.311,-1.25 -0.464,-1.864 -0.123,-0.622 -0.243,-1.236 -0.362,-1.841 -0.117,-0.604 -0.231,-1.197 -0.344,-1.777 -0.081,-0.587 -0.159,-1.161 -0.236,-1.72 -0.159,-1.114 -0.308,-2.167 -0.353,-3.15 -0.069,-0.978 -0.133,-1.874 -0.189,-2.669 -0.001,-0.796 -0.002,-1.49 -0.003,-2.062 -0.001,-1.141 -0.002,-1.792 -0.002,-1.792 0,0 0.048,0.65 0.131,1.787 0.042,0.567 0.092,1.257 0.151,2.047 0.112,0.783 0.239,1.668 0.378,2.633 0.113,0.967 0.337,1.998 0.573,3.087 0.115,0.544 0.233,1.104 0.354,1.675 0.152,0.564 0.307,1.141 0.465,1.728 0.159,0.584 0.321,1.179 0.485,1.78 0.194,0.594 0.39,1.193 0.588,1.799 0.376,1.215 0.83,2.425 1.301,3.626 0.437,1.214 0.984,2.386 1.478,3.554 0.51,1.161 1.071,2.278 1.592,3.366 0.569,1.065 1.074,2.115 1.632,3.07 0.535,0.968 1.056,1.871 1.562,2.691 0.992,1.649 1.884,2.979 2.52,3.891 0.32,0.458 0.571,0.808 0.742,1.034 0.178,0.238 0.273,0.365 0.273,0.365 z"
           inkscape:connector-curvature="0" />
      </g>
      <g
         id="g54"
         transform="matrix(0.26458333,0,0,0.26458333,-6.7900025,47.771949)">
        <path
           id="path50"
           d="m 145.326,613 c 0,0 4,-11 6,-37"
           inkscape:connector-curvature="0"
           style="fill:#f2b6b6" />
        <path
           id="path52"
           d="m 143.907,612.514 c 0,0 0.219,-0.556 0.526,-1.472 0.167,-0.453 0.342,-1.045 0.548,-1.718 0.202,-0.674 0.452,-1.427 0.666,-2.272 0.226,-0.842 0.47,-1.754 0.729,-2.719 0.248,-0.969 0.471,-2.003 0.723,-3.067 0.24,-1.066 0.524,-2.162 0.73,-3.295 0.223,-1.13 0.449,-2.276 0.676,-3.424 0.234,-1.147 0.454,-2.298 0.627,-3.438 0.187,-1.138 0.371,-2.258 0.548,-3.342 0.173,-1.086 0.362,-2.133 0.502,-3.131 0.132,-0.999 0.257,-1.944 0.373,-2.816 0.462,-3.492 0.77,-5.82 0.77,-5.82 0,0 -0.122,2.347 -0.304,5.866 -0.045,0.881 -0.095,1.835 -0.147,2.845 -0.06,1.009 -0.165,2.069 -0.251,3.169 -0.091,1.1 -0.186,2.236 -0.282,3.391 -0.083,1.157 -0.21,2.328 -0.354,3.498 -0.135,1.172 -0.271,2.344 -0.404,3.497 -0.116,1.156 -0.314,2.284 -0.47,3.382 -0.169,1.096 -0.311,2.158 -0.484,3.162 -0.185,1.003 -0.359,1.951 -0.521,2.826 -0.149,0.877 -0.345,1.677 -0.497,2.388 -0.157,0.711 -0.288,1.329 -0.433,1.854 -0.266,1.057 -0.435,1.608 -0.435,1.608 z"
           inkscape:connector-curvature="0" />
      </g>
      <g
         id="g60"
         transform="matrix(0.26458333,0,0,0.26458333,-6.7900025,47.771949)">
        <path
           id="path56"
           d="m 122.326,609 c 0,0 -31,-15 -41,-51"
           inkscape:connector-curvature="0"
           style="fill:#f2b6b6" />
        <path
           id="path58"
           d="m 121.655,610.342 c 0,0 -0.236,-0.13 -0.679,-0.373 -0.462,-0.252 -1.103,-0.633 -1.902,-1.122 -0.802,-0.492 -1.754,-1.112 -2.833,-1.842 -1.065,-0.749 -2.277,-1.576 -3.534,-2.563 -1.29,-0.945 -2.608,-2.066 -4.013,-3.234 -0.716,-0.568 -1.381,-1.235 -2.098,-1.871 -0.699,-0.656 -1.452,-1.284 -2.146,-1.999 -1.388,-1.43 -2.891,-2.834 -4.239,-4.434 -0.692,-0.78 -1.389,-1.567 -2.089,-2.358 -0.652,-0.829 -1.308,-1.662 -1.963,-2.495 -1.352,-1.632 -2.513,-3.407 -3.689,-5.125 -0.293,-0.429 -0.586,-0.856 -0.877,-1.282 -0.285,-0.43 -0.527,-0.884 -0.79,-1.321 -0.515,-0.879 -1.024,-1.748 -1.524,-2.604 -0.25,-0.427 -0.498,-0.85 -0.743,-1.27 -0.237,-0.424 -0.432,-0.866 -0.646,-1.291 -0.417,-0.855 -0.827,-1.692 -1.225,-2.507 -0.384,-0.82 -0.814,-1.592 -1.127,-2.385 -0.312,-0.793 -0.613,-1.559 -0.903,-2.294 -0.556,-1.479 -1.157,-2.798 -1.526,-4.026 -0.368,-1.228 -0.688,-2.298 -0.953,-3.18 -0.527,-1.76 -0.829,-2.766 -0.829,-2.766 0,0 0.346,0.991 0.952,2.727 0.302,0.866 0.669,1.918 1.09,3.124 0.421,1.205 1.08,2.495 1.697,3.938 0.319,0.717 0.652,1.463 0.996,2.235 0.346,0.771 0.808,1.52 1.225,2.314 0.43,0.789 0.871,1.599 1.322,2.427 0.231,0.41 0.441,0.838 0.695,1.247 0.261,0.403 0.525,0.812 0.792,1.223 0.531,0.821 1.071,1.656 1.618,2.501 0.278,0.419 0.536,0.855 0.836,1.267 0.306,0.406 0.613,0.815 0.921,1.226 1.235,1.64 2.45,3.331 3.852,4.876 0.679,0.788 1.357,1.576 2.033,2.361 0.721,0.744 1.439,1.484 2.152,2.22 1.387,1.506 2.924,2.815 4.338,4.149 0.708,0.668 1.472,1.249 2.182,1.858 0.728,0.589 1.402,1.209 2.125,1.731 1.42,1.076 2.749,2.109 4.042,2.97 1.262,0.904 2.471,1.651 3.531,2.328 1.071,0.656 2.015,1.212 2.799,1.647 0.788,0.435 1.404,0.765 1.815,0.965 0.43,0.212 0.659,0.324 0.659,0.324 z"
           inkscape:connector-curvature="0" />
      </g>
      <g
         id="g66"
         transform="matrix(0.26458333,0,0,0.26458333,-6.7900025,47.771949)">
        <path
           id="path62"
           d="m 129.326,611 c 0,0 -30,-25 -28,-73"
           inkscape:connector-curvature="0"
           style="fill:#f2b6b6" />
        <path
           id="path64"
           d="m 128.348,612.137 c 0,0 -0.227,-0.192 -0.683,-0.634 -0.467,-0.431 -1.088,-1.067 -1.873,-1.878 -0.763,-0.83 -1.703,-1.823 -2.699,-3.027 -0.498,-0.602 -1.028,-1.241 -1.586,-1.916 -0.528,-0.696 -1.083,-1.429 -1.663,-2.193 -0.289,-0.383 -0.583,-0.773 -0.883,-1.172 -0.28,-0.412 -0.566,-0.831 -0.857,-1.259 -0.579,-0.854 -1.178,-1.736 -1.794,-2.645 -0.567,-0.938 -1.149,-1.901 -1.745,-2.886 -0.297,-0.492 -0.598,-0.99 -0.901,-1.492 -0.274,-0.519 -0.551,-1.042 -0.83,-1.57 -0.558,-1.055 -1.125,-2.128 -1.698,-3.214 -0.53,-1.107 -1.025,-2.249 -1.545,-3.387 -1.098,-2.252 -1.914,-4.666 -2.818,-7.037 -0.479,-1.177 -0.824,-2.4 -1.181,-3.613 -0.359,-1.211 -0.718,-2.417 -1.073,-3.613 -0.649,-2.408 -1.091,-4.83 -1.623,-7.141 -0.143,-0.576 -0.237,-1.156 -0.307,-1.736 -0.081,-0.577 -0.161,-1.148 -0.24,-1.714 -0.158,-1.13 -0.312,-2.236 -0.462,-3.313 -0.075,-0.537 -0.149,-1.067 -0.222,-1.59 -0.056,-0.524 -0.069,-1.045 -0.105,-1.555 -0.061,-1.02 -0.12,-2.005 -0.177,-2.95 -0.057,-0.945 -0.111,-1.851 -0.163,-2.712 -0.022,-0.431 -0.059,-0.85 -0.067,-1.258 0.008,-0.408 0.016,-0.805 0.024,-1.189 0.031,-1.537 0.059,-2.877 0.081,-3.98 0.045,-2.203 0.07,-3.463 0.07,-3.463 0,0 0.021,1.26 0.059,3.465 0.019,1.101 0.041,2.438 0.067,3.971 0.006,0.383 0.013,0.778 0.02,1.186 0.023,0.406 0.076,0.823 0.114,1.251 0.083,0.855 0.171,1.756 0.262,2.694 0.092,0.938 0.187,1.915 0.285,2.926 0.055,0.505 0.087,1.021 0.162,1.539 0.092,0.517 0.185,1.04 0.28,1.572 0.189,1.062 0.383,2.152 0.581,3.268 0.099,0.557 0.199,1.12 0.3,1.688 0.09,0.57 0.205,1.142 0.367,1.708 0.614,2.27 1.137,4.643 1.867,6.996 0.395,1.167 0.792,2.343 1.191,3.523 0.396,1.182 0.779,2.372 1.295,3.514 0.978,2.301 1.864,4.638 3.025,6.809 0.552,1.098 1.078,2.196 1.636,3.262 0.602,1.041 1.195,2.07 1.78,3.083 0.292,0.505 0.581,1.007 0.867,1.504 0.314,0.479 0.626,0.954 0.935,1.424 0.616,0.938 1.219,1.857 1.805,2.751 0.633,0.861 1.248,1.699 1.843,2.51 0.298,0.404 0.591,0.802 0.878,1.191 0.306,0.376 0.606,0.744 0.9,1.105 0.589,0.72 1.153,1.41 1.69,2.066 0.564,0.632 1.099,1.23 1.602,1.793 1.003,1.126 1.941,2.045 2.698,2.81 0.777,0.745 1.388,1.326 1.804,1.681 0.404,0.367 0.665,0.574 0.665,0.574 z"
           inkscape:connector-curvature="0" />
      </g>
      <g
         id="g72"
         transform="matrix(0.26458333,0,0,0.26458333,-6.7900025,47.771949)">
        <path
           id="path68"
           d="m 464.326,615 c 0,0 13,-18 13,-39"
           inkscape:connector-curvature="0"
           style="fill:#f2b6b6" />
        <path
           id="path70"
           d="m 463.103,614.133 c 0,0 0.095,-0.127 0.273,-0.365 0.17,-0.227 0.421,-0.576 0.742,-1.034 0.636,-0.912 1.528,-2.241 2.52,-3.891 0.505,-0.82 1.026,-1.724 1.562,-2.691 0.558,-0.955 1.063,-2.005 1.632,-3.07 0.521,-1.088 1.082,-2.205 1.592,-3.366 0.494,-1.168 1.042,-2.34 1.478,-3.554 0.472,-1.201 0.925,-2.411 1.301,-3.626 0.198,-0.605 0.394,-1.205 0.588,-1.799 0.164,-0.602 0.326,-1.196 0.485,-1.78 0.158,-0.587 0.313,-1.163 0.465,-1.728 0.121,-0.571 0.239,-1.131 0.354,-1.675 0.236,-1.089 0.459,-2.12 0.573,-3.087 0.139,-0.965 0.266,-1.85 0.378,-2.633 0.059,-0.79 0.109,-1.479 0.151,-2.047 0.083,-1.137 0.131,-1.787 0.131,-1.787 0,0 -10e-4,0.651 -0.002,1.792 -0.001,0.571 -0.002,1.266 -0.003,2.062 -0.056,0.795 -0.12,1.691 -0.189,2.669 -0.044,0.983 -0.194,2.036 -0.353,3.15 -0.077,0.559 -0.155,1.133 -0.236,1.72 -0.112,0.58 -0.227,1.174 -0.344,1.777 -0.119,0.604 -0.239,1.219 -0.362,1.841 -0.153,0.614 -0.308,1.237 -0.464,1.864 -0.293,1.262 -0.665,2.522 -1.056,3.779 -0.357,1.27 -0.826,2.499 -1.245,3.728 -0.435,1.222 -0.924,2.401 -1.377,3.553 -0.502,1.129 -0.943,2.244 -1.444,3.263 -0.477,1.03 -0.945,1.997 -1.404,2.878 -0.898,1.771 -1.721,3.212 -2.319,4.216 -0.297,0.5 -0.541,0.896 -0.719,1.172 -0.169,0.264 -0.26,0.404 -0.26,0.404 z"
           inkscape:connector-curvature="0" />
      </g>
      <g
         id="g78"
         transform="matrix(0.26458333,0,0,0.26458333,-6.7900025,47.771949)">
        <path
           id="path74"
           d="m 458.326,614 c 0,0 -4,-11 -6,-37"
           inkscape:connector-curvature="0"
           style="fill:#f2b6b6" />
        <path
           id="path76"
           d="m 456.907,614.486 c 0,0 -0.169,-0.552 -0.435,-1.608 -0.146,-0.525 -0.276,-1.144 -0.433,-1.854 -0.152,-0.711 -0.348,-1.511 -0.497,-2.388 -0.161,-0.875 -0.336,-1.823 -0.521,-2.826 -0.173,-1.004 -0.315,-2.066 -0.484,-3.162 -0.156,-1.098 -0.354,-2.226 -0.47,-3.382 -0.133,-1.153 -0.269,-2.325 -0.404,-3.497 -0.143,-1.17 -0.271,-2.341 -0.354,-3.498 -0.096,-1.154 -0.19,-2.291 -0.282,-3.391 -0.086,-1.1 -0.191,-2.16 -0.251,-3.169 -0.052,-1.01 -0.102,-1.964 -0.147,-2.845 -0.182,-3.52 -0.304,-5.866 -0.304,-5.866 0,0 0.308,2.328 0.77,5.82 0.116,0.872 0.241,1.817 0.373,2.816 0.14,0.998 0.329,2.045 0.502,3.131 0.178,1.084 0.362,2.204 0.548,3.342 0.173,1.14 0.393,2.29 0.627,3.438 0.227,1.147 0.453,2.294 0.676,3.424 0.206,1.133 0.49,2.229 0.73,3.295 0.252,1.064 0.476,2.099 0.723,3.067 0.259,0.965 0.503,1.877 0.729,2.719 0.214,0.846 0.464,1.599 0.666,2.272 0.206,0.673 0.381,1.265 0.548,1.718 0.308,0.916 0.527,1.472 0.526,1.472 z"
           inkscape:connector-curvature="0" />
      </g>
      <g
         id="g84"
         transform="matrix(0.26458333,0,0,0.26458333,-6.7900025,47.771949)">
        <path
           id="path80"
           d="m 481.326,610 c 0,0 31,-15 41,-51"
           inkscape:connector-curvature="0"
           style="fill:#f2b6b6" />
        <path
           id="path82"
           d="m 480.655,608.658 c 0,0 0.229,-0.112 0.659,-0.324 0.412,-0.2 1.027,-0.53 1.815,-0.965 0.784,-0.436 1.728,-0.991 2.799,-1.647 1.06,-0.677 2.269,-1.424 3.531,-2.328 1.293,-0.86 2.622,-1.894 4.042,-2.97 0.724,-0.522 1.398,-1.143 2.125,-1.731 0.709,-0.609 1.474,-1.19 2.182,-1.858 1.414,-1.334 2.951,-2.644 4.338,-4.149 0.712,-0.735 1.431,-1.476 2.152,-2.22 0.676,-0.785 1.354,-1.573 2.033,-2.361 1.402,-1.545 2.617,-3.236 3.852,-4.876 0.309,-0.41 0.616,-0.819 0.921,-1.226 0.3,-0.411 0.557,-0.848 0.836,-1.267 0.547,-0.845 1.087,-1.68 1.618,-2.501 0.266,-0.411 0.53,-0.819 0.792,-1.223 0.253,-0.409 0.464,-0.837 0.695,-1.247 0.451,-0.828 0.893,-1.638 1.322,-2.427 0.417,-0.795 0.879,-1.543 1.225,-2.314 0.344,-0.772 0.677,-1.519 0.996,-2.235 0.617,-1.442 1.276,-2.732 1.697,-3.938 0.421,-1.206 0.788,-2.258 1.09,-3.124 0.605,-1.735 0.952,-2.727 0.952,-2.727 0,0 -0.301,1.006 -0.829,2.766 -0.264,0.882 -0.585,1.952 -0.953,3.18 -0.369,1.229 -0.97,2.548 -1.526,4.026 -0.29,0.735 -0.591,1.501 -0.903,2.294 -0.313,0.793 -0.743,1.564 -1.127,2.385 -0.398,0.814 -0.807,1.651 -1.225,2.507 -0.214,0.425 -0.409,0.867 -0.646,1.291 -0.246,0.42 -0.493,0.843 -0.743,1.27 -0.5,0.855 -1.009,1.725 -1.524,2.604 -0.263,0.438 -0.505,0.892 -0.79,1.321 -0.291,0.426 -0.583,0.854 -0.877,1.282 -1.177,1.718 -2.337,3.493 -3.689,5.125 -0.655,0.833 -1.311,1.666 -1.963,2.495 -0.7,0.791 -1.397,1.578 -2.089,2.358 -1.348,1.6 -2.852,3.004 -4.239,4.434 -0.694,0.715 -1.446,1.343 -2.146,1.999 -0.717,0.636 -1.382,1.303 -2.098,1.871 -1.405,1.168 -2.724,2.289 -4.013,3.234 -1.257,0.987 -2.469,1.814 -3.534,2.563 -1.079,0.729 -2.032,1.35 -2.833,1.842 -0.8,0.489 -1.44,0.87 -1.902,1.122 -0.443,0.243 -0.679,0.373 -0.679,0.373 z"
           inkscape:connector-curvature="0" />
      </g>
      <g
         id="g90"
         transform="matrix(0.26458333,0,0,0.26458333,-6.7900025,47.771949)">
        <path
           id="path86"
           d="m 474.326,612 c 0,0 30,-25 28,-73"
           inkscape:connector-curvature="0"
           style="fill:#f2b6b6" />
        <path
           id="path88"
           d="m 473.348,610.863 c 0,0 0.261,-0.207 0.665,-0.574 0.417,-0.354 1.027,-0.936 1.804,-1.681 0.756,-0.765 1.694,-1.684 2.698,-2.81 0.503,-0.563 1.038,-1.161 1.602,-1.793 0.537,-0.656 1.102,-1.347 1.69,-2.066 0.294,-0.361 0.594,-0.729 0.9,-1.105 0.287,-0.39 0.58,-0.787 0.878,-1.191 0.595,-0.811 1.21,-1.648 1.843,-2.51 0.586,-0.894 1.189,-1.813 1.805,-2.751 0.308,-0.47 0.62,-0.944 0.935,-1.424 0.287,-0.497 0.576,-0.999 0.867,-1.504 0.584,-1.013 1.178,-2.042 1.78,-3.083 0.558,-1.065 1.084,-2.164 1.637,-3.262 1.161,-2.171 2.047,-4.508 3.025,-6.809 0.516,-1.142 0.899,-2.332 1.295,-3.514 0.399,-1.181 0.797,-2.356 1.191,-3.523 0.73,-2.354 1.253,-4.727 1.867,-6.996 0.163,-0.566 0.277,-1.138 0.367,-1.708 0.101,-0.568 0.201,-1.132 0.3,-1.688 0.198,-1.115 0.392,-2.206 0.581,-3.268 0.095,-0.532 0.188,-1.056 0.28,-1.572 0.075,-0.519 0.107,-1.034 0.162,-1.539 0.099,-1.011 0.193,-1.988 0.285,-2.926 0.091,-0.938 0.179,-1.839 0.262,-2.694 0.038,-0.428 0.091,-0.845 0.114,-1.251 0.007,-0.407 0.014,-0.803 0.02,-1.186 0.026,-1.533 0.048,-2.87 0.067,-3.971 0.037,-2.205 0.059,-3.465 0.059,-3.465 0,0 0.025,1.26 0.07,3.463 0.022,1.104 0.05,2.443 0.081,3.98 0.008,0.385 0.016,0.781 0.024,1.189 -0.008,0.408 -0.045,0.827 -0.067,1.258 -0.052,0.861 -0.106,1.767 -0.163,2.712 -0.057,0.945 -0.116,1.931 -0.177,2.95 -0.036,0.51 -0.05,1.03 -0.105,1.555 -0.073,0.522 -0.147,1.053 -0.222,1.59 -0.15,1.076 -0.305,2.183 -0.462,3.313 -0.079,0.565 -0.159,1.137 -0.24,1.714 -0.07,0.58 -0.164,1.16 -0.307,1.736 -0.532,2.311 -0.974,4.732 -1.623,7.141 -0.355,1.196 -0.714,2.402 -1.074,3.613 -0.357,1.213 -0.702,2.437 -1.181,3.613 -0.905,2.371 -1.721,4.785 -2.818,7.037 -0.521,1.138 -1.016,2.279 -1.545,3.387 -0.574,1.086 -1.141,2.159 -1.698,3.214 -0.279,0.528 -0.557,1.052 -0.831,1.57 -0.303,0.502 -0.604,1 -0.901,1.492 -0.595,0.984 -1.178,1.948 -1.745,2.886 -0.616,0.908 -1.215,1.791 -1.794,2.645 -0.291,0.428 -0.577,0.847 -0.857,1.259 -0.3,0.398 -0.595,0.789 -0.883,1.172 -0.58,0.765 -1.135,1.497 -1.663,2.193 -0.559,0.675 -1.088,1.314 -1.586,1.916 -0.996,1.204 -1.936,2.197 -2.699,3.027 -0.785,0.811 -1.405,1.447 -1.873,1.878 -0.457,0.441 -0.683,0.634 -0.683,0.634 z"
           inkscape:connector-curvature="0" />
      </g>
      <ellipse
         id="ellipse92"
         ry="3.3072917"
         rx="3.7041667"
         cy="152.15007"
         cx="72.935837"
         stroke-miterlimit="10"
         style="fill:#f2b6b6;stroke:#000000;stroke-width:0.79374999;stroke-miterlimit:10" />
      <rect
         id="rect104"
         height="17.991667"
         width="94.191666"
         y="221.33862"
         x="53.534996"
         style="fill:none;stroke-width:0.26458332" />
      <text
         id="text106"
         font-size="36"
         style="font-size:9.52499962px;font-family:MyriadPro-Regular;stroke-width:0.26458332"
         x="53.534996"
         y="228.10126">Front view</text>
    </g>
  </g>
</svg>
