<?xml version="1.0" encoding="UTF-8" standalone="no"?>
<!-- Created with Inkscape (http://www.inkscape.org/) -->

<svg
   xmlns:dc="http://purl.org/dc/elements/1.1/"
   xmlns:cc="http://creativecommons.org/ns#"
   xmlns:rdf="http://www.w3.org/1999/02/22-rdf-syntax-ns#"
   xmlns:svg="http://www.w3.org/2000/svg"
   xmlns="http://www.w3.org/2000/svg"
   xmlns:sodipodi="http://sodipodi.sourceforge.net/DTD/sodipodi-0.dtd"
   xmlns:inkscape="http://www.inkscape.org/namespaces/inkscape"
   width="210mm"
   height="297mm"
   viewBox="0 0 210 297"
   version="1.1"
   id="svg918"
   inkscape:version="0.92.3 (2405546, 2018-03-11)"
   sodipodi:docname="bra3.front.svg">
  <defs
     id="defs912" />
  <sodipodi:namedview
     id="base"
     pagecolor="#ffffff"
     bordercolor="#666666"
     borderopacity="1.0"
     inkscape:pageopacity="0.0"
     inkscape:pageshadow="2"
     inkscape:zoom="0.35"
     inkscape:cx="350"
     inkscape:cy="560"
     inkscape:document-units="mm"
     inkscape:current-layer="layer1"
     showgrid="false"
     inkscape:window-width="1366"
     inkscape:window-height="705"
     inkscape:window-x="-8"
     inkscape:window-y="-8"
     inkscape:window-maximized="1" />
  <metadata
     id="metadata915">
    <rdf:RDF>
      <cc:Work
         rdf:about="">
        <dc:format>image/svg+xml</dc:format>
        <dc:type
           rdf:resource="http://purl.org/dc/dcmitype/StillImage" />
        <dc:title></dc:title>
      </cc:Work>
    </rdf:RDF>
  </metadata>
  <g
     inkscape:label="Layer 1"
     inkscape:groupmode="layer"
     id="layer1">
    <g
       id="g1641"
       transform="matrix(1.6502741,0,0,1.8320025,-135.38915,-256.07153)">
      <path
         id="path6"
         d="m 204.91039,219.52653 -1.68539,17.97843 -16.29357,-0.18759 c 2.6e-4,0 16.48063,-15.544 17.97896,-17.79084 z"
         stroke-miterlimit="10"
         style="fill:#3d3c3d;stroke:#000000;stroke-width:0.79374999;stroke-miterlimit:10"
         inkscape:connector-curvature="0" />
      <path
         id="path8"
         d="m 88.423352,219.90038 1.68566,17.97897 16.293308,-0.18733 c -2.7e-4,0 -16.480633,-15.54374 -17.978968,-17.79164 z"
         stroke-miterlimit="10"
         style="fill:#3d3c3d;stroke:#000000;stroke-width:0.79374999;stroke-miterlimit:10"
         inkscape:connector-curvature="0" />
      <path
         id="path10"
         d="m 143.86044,225.71328 c 0,0 6.04202,-44.70453 -44.385178,-52.02661 l -0.189706,-1.54173 c 0,0 48.910874,1.54173 46.446284,53.18284 z"
         stroke-miterlimit="10"
         style="fill:#3d3c3d;stroke:#000000;stroke-width:0.79374999;stroke-miterlimit:10"
         inkscape:connector-curvature="0" />
      <path
         id="path12"
         d="m 149.56486,225.52595 c 0,0 -6.04229,-44.70453 44.38517,-52.02687 l 0.18944,-1.54146 c 0,0 -48.91061,1.54146 -46.44601,53.18284 z"
         stroke-miterlimit="10"
         style="fill:#3d3c3d;stroke:#000000;stroke-width:0.79374999;stroke-miterlimit:10"
         inkscape:connector-curvature="0" />
      <path
         id="path14"
         d="m 142.67167,224.39539 8.25129,0.18732 c 0,0 3.2975,4.68207 4.3897,5.61843 1.09247,0.9361 1.09247,0.9361 1.09247,0.9361 h -19.6641 c 2.7e-4,2.6e-4 5.61816,-5.43084 5.93064,-6.74185 z"
         stroke-miterlimit="10"
         style="fill:#3d3c3d;stroke:#000000;stroke-width:0.79374999;stroke-miterlimit:10"
         inkscape:connector-curvature="0" />
      <rect
         id="rect16"
         height="40.265083"
         width="3.1837313"
         stroke-miterlimit="10"
         y="143.67868"
         x="96.663536"
         style="fill:#3d3c3d;stroke:#000000;stroke-width:0.79374999;stroke-miterlimit:10" />
      <path
         id="path18"
         d="m 99.847266,183.94351 c 0,0 36.893764,-1.49834 44.010264,40.45188 0,0 -10.1129,15.35668 -33.33538,13.67128 -23.222748,-1.68539 -32.961002,-36.70644 -13.858615,-54.12316 z"
         stroke-miterlimit="10"
         style="fill:#9e59a3;stroke:#000000;stroke-width:0.79374999;stroke-miterlimit:10"
         inkscape:connector-curvature="0" />
      <rect
         id="rect20"
         height="40.264824"
         width="3.1837313"
         stroke-miterlimit="10"
         y="143.86601"
         x="193.4624"
         style="fill:#3d3c3d;stroke:#000000;stroke-width:0.79374999;stroke-miterlimit:10" />
      <path
         id="path22"
         d="m 193.4624,184.13057 c 0,0 -36.89376,-1.49834 -44.01052,40.45214 0,0 10.11317,15.35668 33.33538,13.67155 23.22274,-1.68566 32.96126,-36.7067 13.85861,-54.12369 z"
         stroke-miterlimit="10"
         style="fill:#9e59a3;stroke:#000000;stroke-width:0.79374999;stroke-miterlimit:10"
         inkscape:connector-curvature="0" />
      <path
         id="path26"
         d="m 143.48314,222.89732 c 0,0 -27.90454,30.71336 -53.186803,0.37438"
         stroke-miterlimit="10"
         style="fill:#9e59a3;stroke:#000000;stroke-width:0.79374999;stroke-miterlimit:10"
         inkscape:connector-curvature="0" />
      <g
         id="g32"
         transform="matrix(0.26458333,0,0,0.26458333,58.965702,105.51254)">
        <path
           id="path28"
           d="m 167.253,485.42 c 0,0 31.146,-40.346 36.099,-79.984"
           inkscape:connector-curvature="0"
           style="fill:#9e59a3" />
        <path
           id="path30"
           d="m 166.06,484.511 c 0,0 0.211,-0.271 0.606,-0.779 0.389,-0.502 0.956,-1.247 1.671,-2.218 1.436,-1.927 3.436,-4.729 5.744,-8.156 1.141,-1.722 2.395,-3.578 3.643,-5.592 1.286,-1.99 2.573,-4.132 3.894,-6.354 1.356,-2.203 2.601,-4.567 3.952,-6.924 1.276,-2.396 2.566,-4.836 3.806,-7.301 0.596,-1.244 1.192,-2.488 1.786,-3.728 0.6,-1.237 1.193,-2.472 1.712,-3.727 1.05,-2.504 2.204,-4.926 3.067,-7.366 0.893,-2.428 1.871,-4.739 2.538,-7.019 0.362,-1.131 0.715,-2.23 1.056,-3.294 0.346,-1.063 0.682,-2.09 0.913,-3.101 0.513,-2.01 0.982,-3.852 1.399,-5.484 0.39,-1.64 0.589,-3.098 0.826,-4.286 0.434,-2.384 0.681,-3.747 0.681,-3.747 0,0 -0.202,1.37 -0.554,3.768 -0.196,1.195 -0.347,2.666 -0.681,4.321 -0.362,1.651 -0.771,3.514 -1.217,5.546 -0.198,1.023 -0.5,2.064 -0.81,3.143 -0.306,1.079 -0.623,2.195 -0.948,3.344 -0.594,2.314 -1.495,4.666 -2.312,7.14 -0.787,2.486 -1.861,4.955 -2.834,7.513 -0.48,1.282 -1.034,2.544 -1.595,3.809 -0.556,1.269 -1.114,2.541 -1.671,3.814 -1.165,2.522 -2.379,5.024 -3.584,7.481 -1.279,2.418 -2.456,4.847 -3.746,7.112 -1.255,2.285 -2.481,4.489 -3.709,6.54 -1.191,2.074 -2.392,3.99 -3.485,5.769 -2.214,3.541 -4.141,6.443 -5.534,8.451 -0.689,1.005 -1.249,1.793 -1.637,2.331 -0.384,0.529 -0.588,0.813 -0.588,0.813 z"
           inkscape:connector-curvature="0" />
      </g>
      <g
         id="g38"
         transform="matrix(0.26458333,0,0,0.26458333,58.965702,105.51254)">
        <path
           id="path34"
           d="m 342.794,444.367 c 0,0 105.466,116.083 201.022,1.414"
           inkscape:connector-curvature="0"
           style="fill:#9e59a3" />
        <path
           id="path36"
           d="m 342.794,444.367 c 0,0 0.632,0.652 1.862,1.83 1.226,1.182 3.073,2.861 5.443,4.972 2.378,2.102 5.326,4.585 8.798,7.314 3.479,2.719 7.49,5.674 11.963,8.743 4.496,3.037 9.46,6.186 14.882,9.203 5.414,3.03 11.287,5.919 17.52,8.515 6.222,2.623 12.863,4.789 19.709,6.538 6.863,1.672 13.968,2.863 21.125,3.213 3.574,0.251 7.158,0.201 10.722,0.094 3.557,-0.218 7.104,-0.495 10.581,-1.075 6.96,-1.09 13.723,-2.798 20.02,-5.169 6.302,-2.351 12.189,-5.184 17.553,-8.266 5.361,-3.091 10.176,-6.45 14.499,-9.711 1.069,-0.831 2.117,-1.646 3.141,-2.44 0.996,-0.832 1.969,-1.644 2.917,-2.436 1.929,-1.55 3.639,-3.157 5.291,-4.622 3.247,-2.987 6.002,-5.685 8.185,-7.989 2.227,-2.264 3.895,-4.121 5.047,-5.375 1.151,-1.255 1.766,-1.925 1.766,-1.925 0,0 -0.571,0.706 -1.642,2.031 -1.082,1.315 -2.602,3.307 -4.742,5.664 -2.08,2.412 -4.716,5.245 -7.842,8.401 -1.591,1.549 -3.239,3.249 -5.109,4.901 -0.928,0.835 -1.879,1.691 -2.853,2.567 -1.008,0.839 -2.039,1.697 -3.091,2.574 -4.255,3.449 -9.028,7.023 -14.423,10.284 -5.383,3.271 -11.324,6.331 -17.761,8.811 -6.424,2.501 -13.337,4.437 -20.505,5.56 -3.577,0.614 -7.226,0.919 -10.888,1.16 -3.667,0.128 -7.356,0.2 -11.033,-0.047 -7.36,-0.396 -14.644,-1.653 -21.661,-3.4 -3.497,-0.919 -6.947,-1.914 -10.28,-3.111 -1.682,-0.554 -3.312,-1.218 -4.951,-1.819 -1.612,-0.668 -3.235,-1.28 -4.8,-1.987 -6.316,-2.709 -12.195,-5.81 -17.603,-9.005 -5.427,-3.17 -10.333,-6.521 -14.759,-9.737 -8.843,-6.461 -15.583,-12.621 -20.167,-17.032 -2.292,-2.211 -4.003,-4.038 -5.165,-5.285 -1.158,-1.253 -1.749,-1.944 -1.749,-1.944 z"
           inkscape:connector-curvature="0" />
      </g>
      <g
         id="g44"
         transform="matrix(0.26458333,0,0,0.26458333,58.965702,105.51254)">
        <path
           id="path40"
           d="m 487.19,488.959 c 0,0 -31.145,-40.346 -36.099,-79.984"
           inkscape:connector-curvature="0"
           style="fill:#9e59a3" />
        <path
           id="path42"
           d="m 485.997,489.868 c 0,0 -0.205,-0.283 -0.588,-0.813 -0.388,-0.538 -0.948,-1.327 -1.637,-2.331 -1.393,-2.008 -3.319,-4.91 -5.534,-8.451 -1.094,-1.778 -2.294,-3.694 -3.485,-5.769 -1.229,-2.052 -2.454,-4.255 -3.709,-6.541 -1.29,-2.265 -2.466,-4.693 -3.746,-7.111 -1.205,-2.458 -2.419,-4.959 -3.584,-7.481 -0.558,-1.273 -1.116,-2.546 -1.671,-3.814 -0.561,-1.265 -1.115,-2.526 -1.595,-3.809 -0.973,-2.558 -2.047,-5.026 -2.834,-7.513 -0.816,-2.474 -1.718,-4.825 -2.312,-7.141 -0.325,-1.147 -0.642,-2.264 -0.948,-3.343 -0.311,-1.078 -0.612,-2.119 -0.811,-3.143 -0.446,-2.032 -0.854,-3.895 -1.216,-5.546 -0.335,-1.655 -0.485,-3.125 -0.682,-4.321 -0.353,-2.397 -0.554,-3.768 -0.554,-3.768 0,0 0.248,1.362 0.682,3.747 0.236,1.188 0.435,2.646 0.825,4.286 0.417,1.633 0.886,3.475 1.399,5.484 0.231,1.011 0.567,2.038 0.913,3.101 0.341,1.064 0.693,2.164 1.055,3.295 0.667,2.278 1.645,4.591 2.538,7.019 0.863,2.44 2.017,4.862 3.067,7.365 0.519,1.256 1.112,2.49 1.711,3.728 0.594,1.239 1.19,2.483 1.787,3.728 1.24,2.465 2.53,4.905 3.806,7.301 1.352,2.356 2.597,4.721 3.952,6.924 1.321,2.223 2.608,4.363 3.894,6.354 1.249,2.013 2.501,3.869 3.643,5.592 2.309,3.428 4.309,6.229 5.744,8.156 0.715,0.971 1.282,1.716 1.671,2.218 0.396,0.509 0.606,0.779 0.606,0.779 z"
           inkscape:connector-curvature="0" />
      </g>
      <rect
         id="rect92"
         height="11.641666"
         width="44.450001"
         y="247.06462"
         x="126.16987"
         style="fill:none;stroke-width:0.26458332" />
      <text
         id="text94"
         font-size="36"
         style="font-size:9.52499962px;font-family:MyriadPro-Regular;stroke-width:0.26458332"
         x="126.16987"
         y="253.82727">Front view</text>
    </g>
  </g>
</svg>
