<?xml version="1.0" encoding="UTF-8" standalone="no"?>
<!-- Created with Inkscape (http://www.inkscape.org/) -->

<svg
   xmlns:dc="http://purl.org/dc/elements/1.1/"
   xmlns:cc="http://creativecommons.org/ns#"
   xmlns:rdf="http://www.w3.org/1999/02/22-rdf-syntax-ns#"
   xmlns:svg="http://www.w3.org/2000/svg"
   xmlns="http://www.w3.org/2000/svg"
   xmlns:sodipodi="http://sodipodi.sourceforge.net/DTD/sodipodi-0.dtd"
   xmlns:inkscape="http://www.inkscape.org/namespaces/inkscape"
   width="210mm"
   height="297mm"
   viewBox="0 0 210 297"
   version="1.1"
   id="svg1565"
   inkscape:version="0.92.3 (2405546, 2018-03-11)"
   sodipodi:docname="bra4-back.svg">
  <defs
     id="defs1559" />
  <sodipodi:namedview
     id="base"
     pagecolor="#ffffff"
     bordercolor="#666666"
     borderopacity="1.0"
     inkscape:pageopacity="0.0"
     inkscape:pageshadow="2"
     inkscape:zoom="0.24748737"
     inkscape:cx="381.25634"
     inkscape:cy="515.81551"
     inkscape:document-units="mm"
     inkscape:current-layer="layer1"
     showgrid="false"
     inkscape:window-width="1366"
     inkscape:window-height="705"
     inkscape:window-x="-8"
     inkscape:window-y="-8"
     inkscape:window-maximized="1" />
  <metadata
     id="metadata1562">
    <rdf:RDF>
      <cc:Work
         rdf:about="">
        <dc:format>image/svg+xml</dc:format>
        <dc:type
           rdf:resource="http://purl.org/dc/dcmitype/StillImage" />
        <dc:title></dc:title>
      </cc:Work>
    </rdf:RDF>
  </metadata>
  <g
     inkscape:label="Layer 1"
     inkscape:groupmode="layer"
     id="layer1">
    <g
       id="g2165"
       transform="matrix(1.3810621,0,0,1.4986198,-45.740354,-2.7865056)">
      <path
         stroke-miterlimit="10"
         d="m 54.895894,60.520042 c 0,0 -0.575245,36.186189 -16.085927,40.935678 v 23.52177 l 139.599903,20.5807 v -11.98661 c 0,0 -71.81146,5.20161 -113.748272,-73.051538 z"
         id="path19"
         inkscape:connector-curvature="0"
         style="fill:#989899;stroke:#000000;stroke-width:2.14279628;stroke-miterlimit:10" />
      <path
         stroke-miterlimit="10"
         d="m 162.32468,60.520042 c 0,0 0.57451,36.186189 16.08593,40.935678 v 23.52177 l -139.59913,20.5807 v -11.98661 c 0,0 71.80994,5.20161 113.7475,-73.051538 z"
         id="path21"
         inkscape:connector-curvature="0"
         style="fill:#989899;stroke:#000000;stroke-width:2.14279628;stroke-miterlimit:10" />
      <path
         stroke-miterlimit="10"
         d="m 38.810738,124.97681 c 0,0 61.958152,-16.36307 139.598362,0 v -23.74343 c 0,0 -64.61928,21.25176 -139.598362,0.22247"
         id="path23"
         inkscape:connector-curvature="0"
         style="fill:#3d53a4;stroke:#000000;stroke-width:2.14279628;stroke-miterlimit:10" />
      <polyline
         stroke-miterlimit="10"
         points="367.197,241.625 367.197,235.158 380.248,235.158    380.134,241.625  "
         id="polyline25"
         style="fill:#1e1e1e;stroke:#000000;stroke-miterlimit:10"
         transform="matrix(0.75492451,0,0,0.67579627,-222.31011,-102.76924)" />
      <rect
         x="56.321964"
         y="57.053867"
         stroke-miterlimit="10"
         width="6.7029743"
         height="2.2618902"
         id="rect27"
         style="fill:#ffffff;stroke:#000000;stroke-width:0.71426547;stroke-miterlimit:10" />
      <polyline
         stroke-miterlimit="10"
         points="496.564,241.625 496.564,235.158 509.359,235.158    509.501,241.625  "
         id="polyline29"
         style="fill:#1e1e1e;stroke:#000000;stroke-miterlimit:10"
         transform="matrix(0.75492451,0,0,0.67579627,-222.31011,-102.76924)" />
      <rect
         x="154.17528"
         y="57.053867"
         stroke-miterlimit="10"
         width="6.3194733"
         height="2.2618902"
         id="rect31"
         style="fill:#ffffff;stroke:#000000;stroke-width:0.71426547;stroke-miterlimit:10" />
      <path
         stroke-miterlimit="10"
         d="M 39.959716,133.57092"
         id="path33"
         inkscape:connector-curvature="0"
         style="fill:none;stroke:#000000;stroke-width:0.71426547;stroke-miterlimit:10" />
      <rect
         x="38.811497"
         y="133.57091"
         stroke-miterlimit="10"
         width="139.59914"
         height="11.986598"
         id="rect35"
         style="fill:#3d53a4;stroke:#000000;stroke-width:2.14279628;stroke-miterlimit:10" />
      <rect
         x="87.97068"
         y="154.42867"
         width="33.893093"
         height="5.5401783"
         id="rect41"
         style="fill:none;stroke-width:0.71426547" />
      <text
         y="178.37622"
         x="78.060646"
         transform="scale(1.1269509,0.88735011)"
         font-size="8.032"
         id="text43"
         style="font-size:6.11708403px;font-family:MyriadPro-Regular;stroke-width:0.76158923">BACK VIEW</text>
      <ellipse
         stroke-miterlimit="10"
         cx="108.61031"
         cy="51.216343"
         rx="6.913599"
         ry="4.9333129"
         id="ellipse45"
         style="fill:#1e1e1e;stroke:#000000;stroke-width:0.71426547;stroke-miterlimit:10" />
      <ellipse
         cx="108.61031"
         cy="51.216343"
         rx="4.4593391"
         ry="3.128937"
         id="ellipse47"
         style="fill:#ffffff;stroke-width:0.71426547" />
      <path
         stroke-miterlimit="10"
         d="M 54.895894,56.149668"
         id="path49"
         inkscape:connector-curvature="0"
         style="fill:#ffffff;stroke:#000000;stroke-width:0.71426547;stroke-miterlimit:10" />
      <path
         stroke-miterlimit="10"
         d="m 54.895894,56.149668 c 0,0 1.290187,-48.7654765 4.925894,-52.6864376 3.634965,-3.92029445 44.329162,43.9848716 44.329162,43.9848716 0,0 -2.65659,1.161697 -2.45426,3.057316 0,0 -40.344672,-48.4586575 -41.874902,-45.3837848 -1.530231,3.0748675 4.925893,51.0280348 4.925893,51.0280348 z"
         id="path51"
         inkscape:connector-curvature="0"
         style="fill:#f8e708;stroke:#000000;stroke-width:1.42853093;stroke-miterlimit:10" />
      <path
         stroke-miterlimit="10"
         d="m 162.32468,56.149668 c 0,0 -1.29093,-48.7654765 -4.92589,-52.6864376 -3.63494,-3.92029445 -44.32916,43.9848716 -44.32916,43.9848716 0,0 2.65658,1.161697 2.45426,3.057316 0,0 40.34467,-48.4586575 41.8749,-45.3837848 1.53023,3.0748675 -4.92512,51.0280348 -4.92512,51.0280348 z"
         id="path53"
         inkscape:connector-curvature="0"
         style="fill:#f8e708;stroke:#000000;stroke-width:1.42853093;stroke-miterlimit:10" />
      <path
         stroke-miterlimit="10"
         d="m 105.12405,55.471147 -0.9731,52.690503 3.48625,2.58221 h 1.94392 l 3.12389,-2.30243 V 55.471147 c 0,0 -4.97722,1.915899 -7.58096,0 z"
         id="path63"
         inkscape:connector-curvature="0"
         style="fill:#f8e708;stroke:#000000;stroke-width:1.42853093;stroke-miterlimit:10" />
    </g>
  </g>
</svg>
