<?xml version="1.0" encoding="UTF-8" standalone="no"?>
<!-- Created with Inkscape (http://www.inkscape.org/) -->

<svg
   xmlns:dc="http://purl.org/dc/elements/1.1/"
   xmlns:cc="http://creativecommons.org/ns#"
   xmlns:rdf="http://www.w3.org/1999/02/22-rdf-syntax-ns#"
   xmlns:svg="http://www.w3.org/2000/svg"
   xmlns="http://www.w3.org/2000/svg"
   xmlns:sodipodi="http://sodipodi.sourceforge.net/DTD/sodipodi-0.dtd"
   xmlns:inkscape="http://www.inkscape.org/namespaces/inkscape"
   width="210mm"
   height="297mm"
   viewBox="0 0 210 297"
   version="1.1"
   id="svg869"
   inkscape:version="0.92.3 (2405546, 2018-03-11)"
   sodipodi:docname="bra4-front.svg">
  <defs
     id="defs863" />
  <sodipodi:namedview
     id="base"
     pagecolor="#ffffff"
     bordercolor="#666666"
     borderopacity="1.0"
     inkscape:pageopacity="0.0"
     inkscape:pageshadow="2"
     inkscape:zoom="0.35"
     inkscape:cx="350"
     inkscape:cy="560"
     inkscape:document-units="mm"
     inkscape:current-layer="layer1"
     showgrid="false"
     inkscape:window-width="1366"
     inkscape:window-height="705"
     inkscape:window-x="-8"
     inkscape:window-y="-8"
     inkscape:window-maximized="1" />
  <metadata
     id="metadata866">
    <rdf:RDF>
      <cc:Work
         rdf:about="">
        <dc:format>image/svg+xml</dc:format>
        <dc:type
           rdf:resource="http://purl.org/dc/dcmitype/StillImage" />
        <dc:title></dc:title>
      </cc:Work>
    </rdf:RDF>
  </metadata>
  <g
     inkscape:label="Layer 1"
     inkscape:groupmode="layer"
     id="layer1">
    <g
       id="g1460"
       transform="matrix(1.027033,0,0,1,33.209703,21.166667)">
      <path
         stroke-miterlimit="10"
         d="m -3.9222588,75.041042 c 0,0 -0.789362,52.117878 -22.1097242,58.959018 v 33.87652 c 0,0 150.031733,12.0515 191.883033,29.64259 v -17.26391 c 0,0 -98.705832,7.49244 -156.3487748,-105.213197 h -13.424534 z"
         id="path5"
         inkscape:connector-curvature="0"
         style="fill:#3d53a4;stroke:#000000;stroke-width:3.06460595;stroke-miterlimit:10" />
      <path
         stroke-miterlimit="10"
         d="m 143.74031,75.041042 c 0,0 0.7894,52.117878 22.10973,58.959018 v 33.87652 c 0,0 -150.031745,12.0515 -191.883029,29.64259 v -17.26391 c 0,0 98.704862,7.49244 156.347759,-105.213197 h 13.42554 z"
         id="path7"
         inkscape:connector-curvature="0"
         style="fill:#3d53a4;stroke:#000000;stroke-width:3.06460595;stroke-miterlimit:10" />
      <polyline
         stroke-miterlimit="10"
         points="118.224,243.962 118.609,238.209 105.112,238.209    105.112,243.962  "
         id="polyline9"
         style="fill:#1e1e1e;stroke:#000000;stroke-miterlimit:10"
         transform="matrix(1.0238348,0,0,1.019241,-111.53957,-173.61504)" />
      <rect
         x="-1.9482973"
         y="70.969162"
         stroke-miterlimit="10"
         width="9.476615"
         height="3.0944159"
         id="rect11"
         style="fill:#ffffff;stroke:#000000;stroke-width:1.02153528;stroke-miterlimit:10" />
      <polyline
         stroke-miterlimit="10"
         points="249.337,243.962 249.337,238.209 235.84,238.209    236.226,243.962  "
         id="polyline13"
         style="fill:#1e1e1e;stroke:#000000;stroke-miterlimit:10"
         transform="matrix(1.0238348,0,0,1.019241,-111.53957,-173.61504)" />
      <rect
         x="132.29079"
         y="70.969162"
         stroke-miterlimit="10"
         width="9.4755917"
         height="3.0944159"
         id="rect15"
         style="fill:#ffffff;stroke:#000000;stroke-width:1.02153528;stroke-miterlimit:10" />
      <path
         stroke-miterlimit="10"
         d="M 165.85105,197.51815 H -26.031983 c 7.910183,-5.7577 77.828885,-16.92348 77.828885,-16.92348 h 34.958811 c 0,0 64.105387,8.55959 79.095337,16.92348 z"
         id="path17"
         inkscape:connector-curvature="0"
         style="fill:#989899;stroke:#000000;stroke-width:2.04307055;stroke-miterlimit:10" />
      <rect
         x="38.589447"
         y="209.52379"
         width="53.105289"
         height="8.9468975"
         id="rect37"
         style="fill:none;stroke-width:1.02153528" />
      <text
         y="236.78075"
         x="35.052086"
         transform="scale(1.1009261,0.90832618)"
         font-size="7.6701"
         id="text39"
         style="font-size:8.60668945px;font-family:MyriadPro-Regular;stroke-width:1.12210894">FRONT VIEW</text>
      <ellipse
         stroke-miterlimit="10"
         cx="69.908531"
         cy="61.632923"
         rx="9.5032339"
         ry="7.1051292"
         id="ellipse55"
         style="fill:#1e1e1e;stroke:#000000;stroke-width:1.02153528;stroke-miterlimit:10" />
      <ellipse
         cx="69.909538"
         cy="61.632923"
         rx="6.1296992"
         ry="4.5060644"
         id="ellipse57"
         style="fill:#ffffff;stroke-width:1.02153528" />
      <path
         stroke-miterlimit="10"
         d="m -3.9222588,68.738056 c 0,0 1.774295,-70.2348815 6.771665,-75.8814775 4.996289,-5.6465935 60.9314518,63.3499085 60.9314518,63.3499085 0,0 -3.650978,1.672574 -3.374533,4.403122 0,0 -55.4539758,-69.7935483 -57.5569188,-65.3639274 -2.10398497,4.42860007 6.770622,73.4923744 6.770622,73.4923744 z"
         id="path59"
         inkscape:connector-curvature="0"
         style="fill:#f8e708;stroke:#000000;stroke-width:2.04307055;stroke-miterlimit:10" />
      <path
         stroke-miterlimit="10"
         d="m 143.74031,68.738056 c 0,0 -1.77429,-70.2348815 -6.77063,-75.8814775 -4.99733,-5.6465935 -60.931447,63.3499085 -60.931447,63.3499085 0,0 3.65098,1.672574 3.37353,4.403122 0,0 55.453947,-69.7935483 57.556917,-65.3639274 2.10294,4.42860007 -6.77061,73.4923744 -6.77061,73.4923744 z"
         id="path61"
         inkscape:connector-curvature="0"
         style="fill:#f8e708;stroke:#000000;stroke-width:2.04307055;stroke-miterlimit:10" />
      <path
         stroke-miterlimit="10"
         d="M 65.731297,68.008277 V 145.2056 l 3.40015,2.58785 5.503086,-3.01797 V 68.008277 c 10e-4,0 -4.381985,1.213919 -8.903236,0 z"
         id="path65"
         inkscape:connector-curvature="0"
         style="fill:#f8e708;stroke:#000000;stroke-width:2.04307055;stroke-miterlimit:10" />
    </g>
  </g>
</svg>
