<?xml version="1.0" encoding="UTF-8" standalone="no"?>
<!-- Created with Inkscape (http://www.inkscape.org/) -->

<svg
   xmlns:dc="http://purl.org/dc/elements/1.1/"
   xmlns:cc="http://creativecommons.org/ns#"
   xmlns:rdf="http://www.w3.org/1999/02/22-rdf-syntax-ns#"
   xmlns:svg="http://www.w3.org/2000/svg"
   xmlns="http://www.w3.org/2000/svg"
   xmlns:sodipodi="http://sodipodi.sourceforge.net/DTD/sodipodi-0.dtd"
   xmlns:inkscape="http://www.inkscape.org/namespaces/inkscape"
   width="210mm"
   height="297mm"
   viewBox="0 0 210 297"
   version="1.1"
   id="svg2386"
   inkscape:version="0.92.3 (2405546, 2018-03-11)"
   sodipodi:docname="bra5-back.svg">
  <defs
     id="defs2380" />
  <sodipodi:namedview
     id="base"
     pagecolor="#ffffff"
     bordercolor="#666666"
     borderopacity="1.0"
     inkscape:pageopacity="0.0"
     inkscape:pageshadow="2"
     inkscape:zoom="0.35"
     inkscape:cx="350"
     inkscape:cy="560"
     inkscape:document-units="mm"
     inkscape:current-layer="layer1"
     showgrid="false"
     inkscape:window-width="1366"
     inkscape:window-height="705"
     inkscape:window-x="-8"
     inkscape:window-y="-8"
     inkscape:window-maximized="1" />
  <metadata
     id="metadata2383">
    <rdf:RDF>
      <cc:Work
         rdf:about="">
        <dc:format>image/svg+xml</dc:format>
        <dc:type
           rdf:resource="http://purl.org/dc/dcmitype/StillImage" />
        <dc:title></dc:title>
      </cc:Work>
    </rdf:RDF>
  </metadata>
  <g
     inkscape:label="Layer 1"
     inkscape:groupmode="layer"
     id="layer1">
    <g
       id="g3028"
       transform="matrix(3.5019796,0,0,3.9750904,-221.30015,-523.50162)">
      <path
         id="path54"
         d="m 68.944356,160.9144 c 0,0 3.544094,15.27942 18.234554,10.84527 0.658019,-0.19844 1.338263,-0.43656 2.041261,-0.71729 0.101864,-0.0405 0.2032,-0.082 0.306123,-0.12408 0.445822,-0.18415 0.900906,-0.38524 1.365513,-0.60431 0,0 0.856985,-0.82048 1.468702,-1.93861 0.203994,-0.37253 0.380471,-0.77813 0.488685,-1.1975 0.03704,-0.14446 0.06668,-0.29051 0.08573,-0.43736 0,0 0.326761,-3.07816 -3.187434,-2.90327 0,0 0.245004,-5.95127 -5.476081,-4.37594 0,0 -0.817563,-5.25172 -5.47661,-4.72652 0,0 -0.408782,-3.93224 -4.33123,-3.5007 0,0 0.776023,-2.01295 -1.81901,-4.81383 -2.65e-4,2.6e-4 -1.12739,11.57076 -3.700198,14.49414 z"
         stroke-miterlimit="10"
         style="fill:#f8daca;stroke:#000000;stroke-width:0.52916664;stroke-miterlimit:10"
         inkscape:connector-curvature="0" />
      <path
         id="path56"
         d="m 117.00433,160.9144 c 0,0 -3.54436,15.27942 -18.234819,10.84527 -0.657754,-0.19844 -1.338263,-0.43656 -2.04126,-0.71729 -0.10213,-0.0405 -0.203465,-0.082 -0.306123,-0.12408 -0.445823,-0.18415 -0.900907,-0.38524 -1.364986,-0.60431 0,0 -0.858044,-0.82048 -1.469496,-1.93861 -0.2032,-0.37253 -0.379941,-0.77813 -0.488156,-1.1975 -0.03757,-0.14446 -0.06694,-0.29051 -0.08599,-0.43736 0,0 -0.327025,-3.07816 3.187435,-2.90327 0,0 -0.245004,-5.95127 5.476345,-4.37594 0,0 0.81756,-5.25172 5.47635,-4.72652 0,0 0.40878,-3.93224 4.33202,-3.5007 0,0 -0.77682,-2.01295 1.81848,-4.81383 2.6e-4,2.6e-4 1.12739,11.57076 3.7002,14.49414 z"
         stroke-miterlimit="10"
         style="fill:#f8daca;stroke:#000000;stroke-width:0.52916664;stroke-miterlimit:10"
         inkscape:connector-curvature="0" />
      <path
         id="path58"
         d="m 114.31749,135.03524 c 0,0 -1.01283,28.01858 6.89583,25.92282 v 1.8407 c 0,0 -8.9699,4.0902 -8.39126,-27.76326 h 1.49543 z"
         stroke-miterlimit="10"
         style="fill:#fbbb97;stroke:#000000;stroke-width:0.52916664;stroke-miterlimit:10"
         inkscape:connector-curvature="0" />
      <path
         id="path60"
         d="m 71.449431,135.03524 c 0,0 1.012296,28.01858 -6.896629,25.92282 v 1.8407 c 0,0 8.969904,4.0902 8.391525,-27.76326 h -1.494896 z"
         stroke-miterlimit="10"
         style="fill:#fbbb97;stroke:#000000;stroke-width:0.52916664;stroke-miterlimit:10"
         inkscape:connector-curvature="0" />
      <path
         id="path62"
         d="m 121.41176,162.89719 -1.075,9.13976 c 0,0 -2.83263,2.09815 -5.89307,0 0,0 -3.17341,2.86332 -7.08184,0.022 0,0 7.16148,-1.8161 9.55093,-11.04159 0,2.7e-4 2.38893,2.56381 4.49898,1.87987 z"
         stroke-miterlimit="10"
         style="fill:#f9c9b8;stroke:#000000;stroke-width:0.52916664;stroke-miterlimit:10"
         inkscape:connector-curvature="0" />
      <path
         id="path64"
         d="m 64.552537,162.89719 1.075267,9.13976 c 0,0 2.832629,2.09815 5.892535,0 0,0 3.173677,2.86332 7.081838,0.022 0,0 -7.161213,-1.8161 -9.550665,-11.04159 2.65e-4,2.7e-4 -2.388658,2.56381 -4.498975,1.87987 z"
         stroke-miterlimit="10"
         style="fill:#f9c9b8;stroke:#000000;stroke-width:0.52916664;stroke-miterlimit:10"
         inkscape:connector-curvature="0" />
      <path
         id="path66"
         d="m 94.105171,170.74367 c 0,0.68395 -0.518054,1.23878 -1.157287,1.23878 v 0 c -0.638969,0 -1.157552,-0.55457 -1.157552,-1.23878 v -0.0159 c 0,-0.68368 0.518583,-1.23851 1.157552,-1.23851 v 0 c 0.639233,0 1.157287,0.55456 1.157287,1.23851 z"
         stroke-miterlimit="10"
         style="fill:#5b5b5b;stroke:#000000;stroke-width:0.52916664;stroke-miterlimit:10"
         inkscape:connector-curvature="0" />
      <path
         id="path68"
         d="m 93.758303,170.73573 c 0,0.40958 -0.318559,0.74163 -0.71173,0.74163 h -0.197379 c -0.392906,0 -0.711729,-0.33205 -0.711729,-0.74163 v 0 c 0,-0.40931 0.318823,-0.74136 0.711729,-0.74136 h 0.197379 c 0.393171,-2.6e-4 0.71173,0.33179 0.71173,0.74136 z"
         stroke-miterlimit="10"
         style="fill:#ffffff;stroke:#000000;stroke-width:0.26458332;stroke-miterlimit:10"
         inkscape:connector-curvature="0" />
      <polygon
         id="polygon70"
         points="426.376,349.636 424.809,351.938 427.309,355.085 427.874,351.938 "
         stroke-miterlimit="10"
         style="fill:#f68e65;stroke:#000000;stroke-miterlimit:10"
         transform="matrix(0.26458333,0,0,0.26458333,-21.268508,77.003383)" />
      <polygon
         id="polygon72"
         points="436.992,349.636 438.561,351.938 436.061,355.085 435.494,351.938 "
         stroke-miterlimit="10"
         style="fill:#f68e65;stroke:#000000;stroke-miterlimit:10"
         transform="matrix(0.26458333,0,0,0.26458333,-21.268508,77.003383)" />
      <polygon
         id="polygon74"
         points="427.874,357.067 427.309,355.085 416.782,355.45 413.866,357.067 "
         stroke-miterlimit="10"
         style="fill:#f68e65;stroke:#000000;stroke-miterlimit:10"
         transform="matrix(0.26458333,0,0,0.26458333,-21.268508,77.003383)" />
      <polygon
         id="polygon76"
         points="435.494,357.067 436.061,355.085 446.589,355.45 449.504,357.067 "
         stroke-miterlimit="10"
         style="fill:#f68e65;stroke:#000000;stroke-miterlimit:10"
         transform="matrix(0.26458333,0,0,0.26458333,-21.268508,77.003383)" />
      <polygon
         id="polygon78"
         points="419.467,358.976 328.428,359.182 324.363,324.638 324.363,317.309 419.467,336.19 "
         stroke-miterlimit="10"
         style="fill:#f9c9b8;stroke:#000000;stroke-width:2;stroke-miterlimit:10"
         transform="matrix(0.26458333,0,0,0.26458333,-21.268508,77.003383)" />
      <polygon
         id="polygon80"
         points="444.16,358.976 535.201,359.182 539.264,324.638 539.264,317.309 444.16,336.19 "
         stroke-miterlimit="10"
         style="fill:#f9c9b8;stroke:#000000;stroke-width:2;stroke-miterlimit:10"
         transform="matrix(0.26458333,0,0,0.26458333,-21.268508,77.003383)" />
      <polyline
         id="polyline82"
         points="328.397,356.085 416.689,356.085   416.689,339.245 324.816,321.362 "
         stroke-miterlimit="10"
         style="fill:#f9c9b8;stroke:#000000;stroke-width:2;stroke-miterlimit:10"
         transform="matrix(0.26458333,0,0,0.26458333,-21.268508,77.003383)" />
      <polyline
         id="polyline84"
         points="534.973,356.095 446.681,356.095   446.681,339.254 538.554,321.372 "
         stroke-miterlimit="10"
         style="fill:#f9c9b8;stroke:#000000;stroke-width:2;stroke-miterlimit:10"
         transform="matrix(0.26458333,0,0,0.26458333,-21.268508,77.003383)" />
      <rect
         id="rect86"
         height="6.0287957"
         width="6.5333567"
         stroke-miterlimit="10"
         y="165.95366"
         x="89.715469"
         style="fill:#f9c9b8;stroke:#000000;stroke-width:0.52916664;stroke-miterlimit:10" />
      <line
         id="line88"
         y2="172.03696"
         x2="92.942856"
         y1="165.95366"
         x1="92.942856"
         stroke-miterlimit="10"
         style="fill:#f9c9b8;stroke:#000000;stroke-width:0.52916664;stroke-miterlimit:10" />
      <g
         id="g94"
         transform="matrix(0.26458333,0,0,0.26458333,-21.268508,77.003383)">
        <path
           id="path90"
           d="m 353.309,278.766 c 0,0 8.861,26.091 29.07,31.611 20.21,5.52 24.892,8.766 37.088,25.813"
           inkscape:connector-curvature="0"
           style="fill:#f8daca" />
        <path
           id="path92"
           d="m 353.309,278.766 c 0,0 0.539,1.322 1.641,3.552 1.086,2.235 2.801,5.352 5.156,8.874 2.37,3.502 5.434,7.412 9.364,10.872 1.961,1.728 4.149,3.32 6.53,4.636 1.196,0.647 2.426,1.254 3.709,1.74 0.64,0.247 1.281,0.493 1.944,0.676 l 0.985,0.301 1.036,0.286 c 2.73,0.769 5.499,1.582 8.174,2.495 2.676,0.92 5.29,1.939 7.711,3.197 2.427,1.239 4.654,2.692 6.579,4.288 1.902,1.617 3.582,3.272 4.964,4.929 1.423,1.622 2.608,3.197 3.628,4.61 1.043,1.396 1.869,2.668 2.592,3.686 1.383,2.078 2.145,3.283 2.145,3.283 0,0 -0.894,-1.11 -2.458,-3.052 -0.799,-0.956 -1.721,-2.155 -2.863,-3.456 -1.123,-1.315 -2.418,-2.775 -3.889,-4.294 -0.37,-0.377 -0.748,-0.761 -1.133,-1.153 -0.404,-0.371 -0.815,-0.748 -1.233,-1.132 -0.816,-0.789 -1.749,-1.496 -2.68,-2.25 -1.908,-1.454 -4.086,-2.733 -6.433,-3.88 -2.343,-1.163 -4.926,-2.045 -7.546,-2.945 -2.638,-0.877 -5.344,-1.645 -8.099,-2.401 l -1.02,-0.291 -1.054,-0.33 c -0.708,-0.203 -1.392,-0.471 -2.072,-0.74 -1.365,-0.531 -2.67,-1.187 -3.933,-1.884 -2.524,-1.406 -4.757,-3.175 -6.762,-5.014 -2.007,-1.845 -3.736,-3.831 -5.253,-5.792 -1.522,-1.959 -2.804,-3.921 -3.902,-5.774 -2.204,-3.707 -3.608,-7.013 -4.543,-9.328 -0.912,-2.329 -1.285,-3.709 -1.285,-3.709 z"
           inkscape:connector-curvature="0" />
      </g>
      <g
         id="g100"
         transform="matrix(0.26458333,0,0,0.26458333,-21.268508,77.003383)">
        <path
           id="path96"
           d="m 509.882,278.766 c 0,0 -8.86,26.091 -29.071,31.611 -20.209,5.52 -24.89,8.766 -37.089,25.813"
           inkscape:connector-curvature="0"
           style="fill:#f8daca" />
        <path
           id="path98"
           d="m 509.882,278.766 c 0,0 -0.373,1.38 -1.287,3.708 -0.934,2.315 -2.339,5.621 -4.543,9.328 -1.099,1.853 -2.381,3.815 -3.902,5.774 -1.517,1.961 -3.246,3.947 -5.253,5.792 -2.005,1.839 -4.238,3.608 -6.763,5.014 -1.263,0.697 -2.566,1.353 -3.932,1.884 -0.682,0.27 -1.365,0.537 -2.073,0.74 l -1.053,0.33 -1.021,0.291 c -2.755,0.756 -5.46,1.523 -8.099,2.401 -2.62,0.901 -5.203,1.783 -7.545,2.945 -2.348,1.147 -4.525,2.427 -6.434,3.88 -0.93,0.755 -1.862,1.461 -2.68,2.25 -0.418,0.384 -0.829,0.761 -1.233,1.132 -0.385,0.392 -0.763,0.776 -1.133,1.153 -1.471,1.519 -2.766,2.979 -3.889,4.294 -1.143,1.3 -2.065,2.5 -2.864,3.456 -1.564,1.942 -2.458,3.051 -2.458,3.051 0,0 0.762,-1.205 2.146,-3.283 0.722,-1.018 1.549,-2.29 2.592,-3.686 1.02,-1.413 2.205,-2.988 3.628,-4.61 1.382,-1.656 3.062,-3.312 4.964,-4.929 1.925,-1.596 4.152,-3.048 6.579,-4.288 2.421,-1.259 5.035,-2.277 7.712,-3.198 2.674,-0.914 5.442,-1.726 8.174,-2.495 l 1.035,-0.286 0.986,-0.301 c 0.663,-0.183 1.304,-0.429 1.944,-0.676 1.282,-0.486 2.513,-1.093 3.708,-1.74 2.382,-1.315 4.57,-2.908 6.53,-4.636 3.932,-3.46 6.995,-7.37 9.365,-10.872 2.355,-3.521 4.07,-6.639 5.156,-8.874 1.104,-2.227 1.643,-3.549 1.643,-3.549 z"
           inkscape:connector-curvature="0" />
      </g>
      <polygon
         id="polygon102"
         points="350.43,322.484 350.43,219.333 356.079,219.333 356.079,323.604 "
         stroke-miterlimit="10"
         style="fill:#fbbb97;stroke:#000000;stroke-width:2;stroke-miterlimit:10"
         transform="matrix(0.26458333,0,0,0.26458333,-21.268508,77.003383)" />
      <polygon
         id="polygon104"
         points="512.348,322.484 512.348,219.333 506.698,219.333 506.698,323.604 "
         stroke-miterlimit="10"
         style="fill:#fbbb97;stroke:#000000;stroke-width:2;stroke-miterlimit:10"
         transform="matrix(0.26458333,0,0,0.26458333,-21.268508,77.003383)" />
      <path
         id="path106"
         d="m 114.7006,151.31796 c 0,0.68395 -0.51832,1.23878 -1.15781,1.23878 v 0 c -0.6395,0 -1.15756,-0.55457 -1.15756,-1.23878 v -0.0156 c 0,-0.68395 0.51806,-1.23851 1.15756,-1.23851 v 0 c 0.63949,0 1.15781,0.55456 1.15781,1.23851 z"
         stroke-miterlimit="10"
         style="fill:#5b5b5b;stroke:#000000;stroke-width:0.52916664;stroke-miterlimit:10"
         inkscape:connector-curvature="0" />
      <path
         id="path108"
         d="m 114.35347,151.31029 c 0,0.40904 -0.31829,0.74136 -0.71173,0.74136 h -0.19764 c -0.39291,0 -0.71173,-0.33232 -0.71173,-0.74136 v 0 c 0,-0.40984 0.31882,-0.74189 0.71173,-0.74189 h 0.19764 c 0.39344,0 0.71173,0.33205 0.71173,0.74189 z"
         stroke-miterlimit="10"
         style="fill:#fbbb97;stroke:#000000;stroke-width:0.52916664;stroke-miterlimit:10"
         inkscape:connector-curvature="0" />
      <path
         id="path110"
         d="m 73.354166,150.57633 c 0,0.68422 -0.518054,1.23852 -1.157816,1.23852 v 0 c -0.639234,0 -1.157288,-0.5543 -1.157288,-1.23852 v -0.0156 c 0,-0.68394 0.518054,-1.23877 1.157288,-1.23877 v 0 c 0.639762,0 1.157816,0.55456 1.157816,1.23877 z"
         stroke-miterlimit="10"
         style="fill:#5b5b5b;stroke:#000000;stroke-width:0.52916664;stroke-miterlimit:10"
         inkscape:connector-curvature="0" />
      <path
         id="path112"
         d="m 73.007562,150.56866 c 0,0.40931 -0.318823,0.74163 -0.712258,0.74163 H 72.09766 c -0.392906,0 -0.711729,-0.33205 -0.711729,-0.74163 v 0 c 0,-0.40984 0.318823,-0.74163 0.711729,-0.74163 h 0.197644 c 0.393435,0 0.712258,0.33179 0.712258,0.74163 z"
         stroke-miterlimit="10"
         style="fill:#fbbb97;stroke:#000000;stroke-width:0.52916664;stroke-miterlimit:10"
         inkscape:connector-curvature="0" />
      <text
         id="text116"
         font-size="12"
         style="font-size:3.17499995px;font-family:MyriadPro-Regular;stroke-width:0.26458332"
         x="85.270737"
         y="179.48511">BACK VIEW</text>
    </g>
  </g>
</svg>
