<?xml version="1.0" encoding="UTF-8" standalone="no"?>
<!-- Created with Inkscape (http://www.inkscape.org/) -->

<svg
   xmlns:dc="http://purl.org/dc/elements/1.1/"
   xmlns:cc="http://creativecommons.org/ns#"
   xmlns:rdf="http://www.w3.org/1999/02/22-rdf-syntax-ns#"
   xmlns:svg="http://www.w3.org/2000/svg"
   xmlns="http://www.w3.org/2000/svg"
   xmlns:sodipodi="http://sodipodi.sourceforge.net/DTD/sodipodi-0.dtd"
   xmlns:inkscape="http://www.inkscape.org/namespaces/inkscape"
   width="210mm"
   height="297mm"
   viewBox="0 0 210 297"
   version="1.1"
   id="svg993"
   inkscape:version="0.92.3 (2405546, 2018-03-11)"
   sodipodi:docname="bra5-front.svg">
  <defs
     id="defs987" />
  <sodipodi:namedview
     id="base"
     pagecolor="#ffffff"
     bordercolor="#666666"
     borderopacity="1.0"
     inkscape:pageopacity="0.0"
     inkscape:pageshadow="2"
     inkscape:zoom="0.35"
     inkscape:cx="364.68213"
     inkscape:cy="656.94331"
     inkscape:document-units="mm"
     inkscape:current-layer="layer1"
     showgrid="false"
     inkscape:window-width="1366"
     inkscape:window-height="705"
     inkscape:window-x="-8"
     inkscape:window-y="-8"
     inkscape:window-maximized="1" />
  <metadata
     id="metadata990">
    <rdf:RDF>
      <cc:Work
         rdf:about="">
        <dc:format>image/svg+xml</dc:format>
        <dc:type
           rdf:resource="http://purl.org/dc/dcmitype/StillImage" />
        <dc:title />
      </cc:Work>
    </rdf:RDF>
  </metadata>
  <g
     inkscape:label="Layer 1"
     inkscape:groupmode="layer"
     id="layer1">
    <g
       id="g2339"
       transform="matrix(3.5587296,0,0,3.9723279,-231.14792,-551.53435)">
      <path
         id="path2"
         d="m 70.295431,169.30985 c 0,0 3.579018,15.34927 18.413412,10.89501 0.664104,-0.19923 1.351227,-0.43868 2.061369,-0.72072 0.102393,-0.0408 0.205316,-0.0823 0.308768,-0.12488 0.450321,-0.18521 0.909903,-0.38709 1.378744,-0.60696 0,0 0.865717,-0.82418 1.483254,-1.94707 0.205846,-0.37438 0.384175,-0.78184 0.493184,-1.20306 0.03784,-0.14499 0.0672,-0.29183 0.08678,-0.43921 0,0 0.3302,-3.09218 -3.218921,-2.91623 0,0 0.24765,-5.97853 -5.529792,-4.39606 0,0 -0.8255,-5.27526 -5.530056,-4.74768 0,0 -0.41275,-3.95023 -4.374356,-3.51684 0,0 0.78396,-2.02221 -1.836208,-4.83553 2.64e-4,0 -1.138238,11.62262 -3.736181,14.55923 z"
         stroke-miterlimit="10"
         style="fill:#fbbb97;stroke:#000000;stroke-width:0.52916664;stroke-miterlimit:10"
         inkscape:connector-curvature="0" />
      <path
         id="path4"
         d="m 72.808179,143.34761 c 0,0 1.02526,28.14611 -6.981296,26.04056 v 1.84891 c 0,0 9.080235,4.10898 8.494448,-27.88947 z"
         stroke-miterlimit="10"
         style="fill:#fbbb97;stroke:#000000;stroke-width:0.52916664;stroke-miterlimit:10"
         inkscape:connector-curvature="0" />
      <path
         id="path6"
         d="m 65.826883,171.23708 1.088231,9.18157 c 0,0 2.867819,2.10767 5.965296,0 0,0 3.212835,2.87655 7.16862,0.0225 0,0 -7.249318,-1.82457 -9.667874,-11.09213 2.64e-4,-2.6e-4 -2.418027,2.57519 -4.554273,1.88807 z"
         stroke-miterlimit="10"
         style="fill:#f9c9b8;stroke:#000000;stroke-width:0.52916664;stroke-miterlimit:10"
         inkscape:connector-curvature="0" />
      <g
         id="g10"
         transform="matrix(0.26458333,0,0,0.26458333,51.010216,85.315756)">
        <path
           id="path8"
           d="m 74.79,314.005 v 0 l 1.673,-0.962 c 0.609,2.54 1.371,5.1 2.204,7.609 0.416,1.259 0.871,2.502 1.335,3.744 0.492,1.229 0.967,2.469 1.522,3.672 0.518,1.223 1.13,2.396 1.718,3.585 l 0.973,1.733 c 0.308,0.59 0.699,1.124 1.05,1.687 0.352,0.563 0.722,1.114 1.14,1.628 0.419,0.511 0.771,1.086 1.248,1.549 0.461,0.475 0.895,0.984 1.381,1.436 l 1.546,1.267 -1.628,-1.173 c -0.518,-0.423 -0.984,-0.906 -1.481,-1.359 -0.513,-0.44 -0.9,-0.993 -1.358,-1.486 -0.457,-0.496 -0.866,-1.028 -1.256,-1.575 -0.391,-0.545 -0.824,-1.067 -1.171,-1.642 l -1.096,-1.695 c -0.669,-1.164 -1.366,-2.318 -1.967,-3.521 -0.639,-1.185 -1.198,-2.407 -1.775,-3.624 -0.549,-1.227 -1.089,-2.459 -1.59,-3.708 -1.006,-2.501 -1.93,-5.011 -2.731,-7.621 l -1.093,-3.561 2.768,2.6 0.001,10e-4 z"
           inkscape:connector-curvature="0" />
      </g>
      <g
         id="g14"
         transform="matrix(0.26458333,0,0,0.26458333,51.010216,85.315756)">
        <path
           id="path12"
           d="m 86.311,270.901 c 0,0 0.495,1.718 1.7,4.585 0.606,1.431 1.37,3.157 2.398,5.057 0.254,0.476 0.517,0.966 0.788,1.472 0.294,0.492 0.596,0.998 0.906,1.517 0.595,1.052 1.311,2.102 2.041,3.206 0.704,1.122 1.6,2.175 2.435,3.327 0.896,1.104 1.856,2.219 2.853,3.35 2.097,2.167 4.398,4.375 7.068,6.279 0.664,0.479 1.333,0.963 2.007,1.451 0.716,0.422 1.437,0.847 2.163,1.275 0.738,0.403 1.429,0.905 2.216,1.234 0.771,0.359 1.546,0.719 2.325,1.082 l 1.168,0.546 c 0.418,0.191 0.815,0.348 1.225,0.524 0.813,0.343 1.629,0.688 2.446,1.032 1.635,0.684 3.266,1.479 4.903,2.216 1.607,0.805 3.211,1.611 4.788,2.458 1.548,0.904 3.143,1.707 4.624,2.688 0.75,0.473 1.497,0.943 2.241,1.412 0.733,0.485 1.432,1.017 2.142,1.519 1.439,0.98 2.753,2.099 4.064,3.171 0.671,0.517 1.269,1.113 1.876,1.683 0.603,0.575 1.2,1.144 1.791,1.708 0.545,0.61 1.083,1.213 1.616,1.809 0.533,0.594 1.069,1.173 1.515,1.815 0.925,1.254 1.884,2.429 2.59,3.721 0.376,0.628 0.747,1.245 1.11,1.851 0.322,0.628 0.603,1.265 0.896,1.876 0.283,0.617 0.581,1.21 0.834,1.807 0.211,0.614 0.417,1.213 0.618,1.798 0.196,0.584 0.388,1.153 0.574,1.707 0.127,0.569 0.252,1.123 0.372,1.659 0.559,2.126 0.684,4.038 0.866,5.592 0.122,0.775 0.065,1.48 0.077,2.086 -0.002,0.607 -0.003,1.124 -0.005,1.542 -0.002,0.835 -0.004,1.28 -0.004,1.28 0,0 -0.036,-0.444 -0.104,-1.278 -0.034,-0.416 -0.076,-0.928 -0.125,-1.531 -0.067,-0.6 -0.058,-1.296 -0.225,-2.058 -0.277,-1.528 -0.518,-3.397 -1.199,-5.445 -0.15,-0.515 -0.305,-1.046 -0.464,-1.594 -0.216,-0.528 -0.438,-1.07 -0.666,-1.627 -0.223,-0.557 -0.453,-1.128 -0.687,-1.713 -0.272,-0.567 -0.589,-1.131 -0.891,-1.715 -0.311,-0.579 -0.608,-1.181 -0.946,-1.773 -0.378,-0.57 -0.764,-1.15 -1.156,-1.74 -0.731,-1.214 -1.691,-2.327 -2.625,-3.505 -0.448,-0.604 -0.986,-1.147 -1.521,-1.705 -0.532,-0.559 -1.071,-1.124 -1.616,-1.695 -1.197,-1.038 -2.329,-2.193 -3.629,-3.203 -1.295,-1.016 -2.588,-2.077 -4.013,-3.005 -0.703,-0.475 -1.39,-0.979 -2.116,-1.438 -0.729,-0.453 -1.463,-0.908 -2.199,-1.365 -1.45,-0.949 -3.026,-1.728 -4.546,-2.604 -1.553,-0.823 -3.141,-1.603 -4.72,-2.387 -1.607,-0.735 -3.174,-1.515 -4.808,-2.211 -0.815,-0.35 -1.628,-0.7 -2.439,-1.048 -0.4,-0.175 -0.823,-0.346 -1.203,-0.524 l -1.216,-0.576 c -0.808,-0.384 -1.613,-0.767 -2.414,-1.148 -0.812,-0.36 -1.525,-0.896 -2.285,-1.331 -0.745,-0.46 -1.486,-0.918 -2.222,-1.373 -0.691,-0.52 -1.376,-1.035 -2.057,-1.547 -2.743,-2.02 -5.038,-4.394 -7.12,-6.69 -0.984,-1.199 -1.944,-2.366 -2.808,-3.539 -0.803,-1.217 -1.665,-2.333 -2.332,-3.509 -0.688,-1.161 -1.381,-2.251 -1.917,-3.358 -0.281,-0.545 -0.554,-1.077 -0.82,-1.593 -0.241,-0.528 -0.476,-1.041 -0.703,-1.538 -0.917,-1.982 -1.577,-3.77 -2.095,-5.245 -0.52,-1.476 -0.831,-2.667 -1.046,-3.474 -0.206,-0.814 -0.294,-1.25 -0.294,-1.25 z"
           inkscape:connector-curvature="0" />
      </g>
      <path
         id="path16"
         d="m 85.772497,167.85067 c 0,0 -5.890154,2.82999 -5.723202,12.59047"
         stroke-miterlimit="10"
         style="fill:none;stroke:#000000;stroke-width:0.13229166;stroke-miterlimit:10"
         inkscape:connector-curvature="0" />
      <path
         id="path18"
         d="m 118.70386,169.30985 c 0,0 -3.57002,15.34927 -18.3679,10.89501 -0.662784,-0.19923 -1.348054,-0.43868 -2.056344,-0.72072 -0.102129,-0.0408 -0.205052,-0.0823 -0.308504,-0.12488 -0.449263,-0.18521 -0.907786,-0.38709 -1.375304,-0.60696 0,0 -0.8636,-0.82418 -1.479286,-1.94707 -0.205581,-0.37438 -0.383116,-0.78184 -0.492125,-1.20306 -0.03757,-0.14499 -0.06694,-0.29183 -0.08652,-0.43921 0,0 -0.329406,-3.09218 3.210984,-2.91623 0,0 -0.247386,-5.97853 5.516029,-4.39606 0,0 0.82339,-5.27526 5.5163,-4.74768 0,0 0.41196,-3.95023 4.36351,-3.51684 0,0 -0.78211,-2.02221 1.83198,-4.83553 0,0 1.13532,11.62262 3.72718,14.55923 z"
         stroke-miterlimit="10"
         style="fill:#fbbb97;stroke:#000000;stroke-width:0.52916664;stroke-miterlimit:10"
         inkscape:connector-curvature="0" />
      <path
         id="path20"
         d="m 116.19746,143.34761 c 0,0 -1.02261,28.14611 6.96384,26.04056 v 1.84891 c 0,0 -9.05801,4.10898 -8.47355,-27.88947 z"
         stroke-miterlimit="10"
         style="fill:#fbbb97;stroke:#000000;stroke-width:0.52916664;stroke-miterlimit:10"
         inkscape:connector-curvature="0" />
      <path
         id="path22"
         d="m 123.1613,171.23708 -1.08559,9.18157 c 0,0 -2.86094,2.10767 -5.95074,0 0,0 -3.2049,2.87655 -7.1509,0.0225 0,0 7.2316,-1.82457 9.64407,-11.09213 0,-2.6e-4 2.41247,2.57519 4.54316,1.88807 z"
         stroke-miterlimit="10"
         style="fill:#f9c9b8;stroke:#000000;stroke-width:0.52916664;stroke-miterlimit:10"
         inkscape:connector-curvature="0" />
      <g
         id="g26"
         transform="matrix(0.26458333,0,0,0.26458333,51.010216,85.315756)">
        <path
           id="path24"
           d="m 252.542,312.591 v 0 l 2.766,-2.598 -1.09,3.558 c -0.799,2.608 -1.721,5.117 -2.724,7.618 -0.5,1.248 -1.039,2.48 -1.586,3.707 -0.575,1.216 -1.132,2.438 -1.77,3.623 -0.599,1.202 -1.294,2.357 -1.961,3.521 l -1.093,1.695 c -0.347,0.575 -0.778,1.097 -1.168,1.643 -0.39,0.547 -0.797,1.08 -1.253,1.576 -0.457,0.494 -0.844,1.045 -1.355,1.487 -0.496,0.453 -0.962,0.936 -1.479,1.36 l -1.625,1.174 1.543,-1.269 c 0.485,-0.452 0.919,-0.961 1.378,-1.437 0.475,-0.463 0.827,-1.038 1.245,-1.549 0.417,-0.515 0.786,-1.065 1.137,-1.629 0.351,-0.563 0.74,-1.097 1.048,-1.687 l 0.97,-1.733 c 0.586,-1.19 1.197,-2.363 1.713,-3.585 0.554,-1.202 1.028,-2.442 1.518,-3.671 0.463,-1.242 0.917,-2.485 1.332,-3.744 0.83,-2.508 1.589,-5.067 2.197,-7.606 l 1.674,0.96 -0.001,10e-4 z"
           inkscape:connector-curvature="0" />
      </g>
      <g
         id="g30"
         transform="matrix(0.26458333,0,0,0.26458333,51.010216,85.315756)">
        <path
           id="path28"
           d="m 171.41,352.236 c 0,0 -0.001,-0.445 -0.004,-1.28 -0.001,-0.417 -0.003,-0.932 -0.004,-1.538 0.012,-0.605 -0.046,-1.301 0.075,-2.078 0.181,-1.553 0.306,-3.473 0.863,-5.594 0.119,-0.536 0.243,-1.088 0.37,-1.657 0.186,-0.553 0.376,-1.122 0.572,-1.705 0.2,-0.584 0.405,-1.183 0.615,-1.796 0.249,-0.597 0.548,-1.189 0.831,-1.806 0.292,-0.612 0.573,-1.246 0.891,-1.876 0.362,-0.605 0.731,-1.222 1.106,-1.85 0.703,-1.292 1.657,-2.468 2.582,-3.721 0.445,-0.642 0.977,-1.223 1.51,-1.816 0.531,-0.596 1.069,-1.199 1.612,-1.809 0.589,-0.564 1.184,-1.134 1.784,-1.71 0.607,-0.569 1.202,-1.167 1.872,-1.685 1.309,-1.071 2.619,-2.193 4.055,-3.173 0.709,-0.502 1.407,-1.034 2.138,-1.521 0.742,-0.469 1.487,-0.941 2.236,-1.415 1.478,-0.982 3.069,-1.787 4.615,-2.691 1.573,-0.85 3.177,-1.654 4.778,-2.462 1.632,-0.739 3.245,-1.526 4.888,-2.216 0.821,-0.347 1.641,-0.694 2.458,-1.039 0.386,-0.167 0.866,-0.359 1.174,-0.503 l 1.192,-0.557 c 0.793,-0.371 1.583,-0.741 2.37,-1.108 0.407,-0.169 0.771,-0.379 1.125,-0.597 l 1.077,-0.635 c 0.716,-0.424 1.428,-0.845 2.135,-1.263 0.672,-0.488 1.34,-0.971 2.003,-1.451 2.664,-1.907 4.958,-4.116 7.05,-6.282 0.992,-1.133 1.954,-2.245 2.844,-3.352 0.832,-1.151 1.727,-2.204 2.428,-3.325 0.728,-1.103 1.442,-2.152 2.034,-3.205 0.31,-0.519 0.611,-1.024 0.904,-1.516 0.27,-0.505 0.532,-0.996 0.785,-1.471 1.025,-1.898 1.787,-3.624 2.392,-5.053 1.202,-2.864 1.696,-4.581 1.696,-4.581 0,0 -0.088,0.436 -0.291,1.248 -0.214,0.807 -0.524,1.997 -1.041,3.471 -0.516,1.474 -1.173,3.26 -2.086,5.242 -0.226,0.497 -0.46,1.01 -0.7,1.538 -0.265,0.516 -0.538,1.047 -0.817,1.592 -0.535,1.106 -1.224,2.198 -1.911,3.357 -0.663,1.176 -1.523,2.291 -2.324,3.508 -0.861,1.173 -1.819,2.339 -2.799,3.54 -2.076,2.298 -4.367,4.671 -7.104,6.694 -0.679,0.512 -1.363,1.028 -2.052,1.548 -0.731,0.471 -1.488,0.922 -2.241,1.388 -0.759,0.437 -1.504,0.986 -2.291,1.336 -0.784,0.373 -1.571,0.748 -2.362,1.124 l -1.188,0.565 c -0.488,0.227 -0.827,0.361 -1.25,0.546 -0.805,0.347 -1.612,0.695 -2.421,1.043 -1.621,0.692 -3.201,1.481 -4.808,2.215 -1.58,0.785 -3.163,1.565 -4.713,2.39 -1.519,0.876 -3.091,1.656 -4.538,2.606 -0.735,0.457 -1.468,0.912 -2.196,1.365 -0.723,0.46 -1.41,0.964 -2.111,1.44 -1.422,0.929 -2.711,1.991 -4.004,3.007 -0.663,0.49 -1.247,1.058 -1.846,1.597 -0.598,0.542 -1.189,1.078 -1.774,1.609 -0.544,0.572 -1.082,1.137 -1.613,1.696 -0.535,0.557 -1.069,1.102 -1.516,1.706 -0.932,1.177 -1.886,2.292 -2.617,3.505 -0.391,0.59 -0.775,1.17 -1.152,1.739 -0.334,0.594 -0.633,1.194 -0.942,1.773 -0.3,0.584 -0.618,1.146 -0.886,1.715 -0.234,0.584 -0.463,1.155 -0.686,1.711 -0.227,0.557 -0.448,1.099 -0.664,1.626 -0.158,0.547 -0.312,1.079 -0.46,1.593 -0.679,2.049 -0.916,3.906 -1.193,5.432 -0.24,1.532 -0.256,2.768 -0.35,3.594 -0.069,0.834 -0.105,1.278 -0.105,1.278 z"
           inkscape:connector-curvature="0" />
      </g>
      <path
         id="path32"
         d="m 103.2649,167.85067 c 0,0 5.87586,2.82999 5.70917,12.59047"
         stroke-miterlimit="10"
         style="fill:none;stroke:#000000;stroke-width:0.13229166;stroke-miterlimit:10"
         inkscape:connector-curvature="0" />
      <path
         id="path34"
         d="m 95.698341,179.26427 c 0,0.68739 -0.523346,1.24434 -1.168665,1.24434 v 0 c -0.645583,0 -1.168929,-0.55695 -1.168929,-1.24434 v -0.0156 c 0,-0.68712 0.523346,-1.24433 1.168929,-1.24433 v 0 c 0.645319,0 1.168665,0.55694 1.168665,1.24433 z"
         stroke-miterlimit="10"
         style="fill:#5b5b5b;stroke:#000000;stroke-width:0.52916664;stroke-miterlimit:10"
         inkscape:connector-curvature="0" />
      <path
         id="path36"
         d="m 95.348297,179.25633 c 0,0.41143 -0.321733,0.7448 -0.718873,0.7448 h -0.199496 c -0.396875,0 -0.718608,-0.33337 -0.718608,-0.7448 v 0 c 0,-0.41142 0.321733,-0.7448 0.718608,-0.7448 h 0.199496 c 0.396875,0 0.718873,0.33364 0.718873,0.7448 z"
         stroke-miterlimit="10"
         style="fill:#ffffff;stroke:#000000;stroke-width:0.26458332;stroke-miterlimit:10"
         inkscape:connector-curvature="0" />
      <g
         id="g40"
         transform="matrix(0.26458333,0,0,0.26458333,51.010216,85.315756)">
        <path
           id="path38"
           d="m 156.891,342.727 c 0,0 -0.058,0.091 -0.165,0.261 -0.112,0.181 -0.284,0.413 -0.501,0.717 -0.45,0.589 -1.121,1.404 -2.008,2.296 -0.456,0.432 -0.937,0.916 -1.493,1.372 -0.545,0.469 -1.135,0.943 -1.775,1.393 -0.617,0.482 -1.317,0.888 -2.001,1.338 -0.701,0.423 -1.437,0.813 -2.166,1.209 -0.756,0.345 -1.497,0.721 -2.251,1.032 -0.764,0.289 -1.505,0.597 -2.239,0.85 -0.741,0.229 -1.458,0.449 -2.137,0.659 -0.685,0.189 -1.344,0.322 -1.946,0.469 -0.603,0.143 -1.154,0.276 -1.654,0.341 -0.497,0.08 -0.929,0.15 -1.286,0.208 -0.712,0.115 -1.119,0.18 -1.119,0.18 0,0 0.404,-0.081 1.111,-0.223 0.354,-0.071 0.783,-0.157 1.275,-0.255 0.495,-0.083 1.04,-0.237 1.635,-0.402 0.594,-0.169 1.244,-0.325 1.917,-0.54 0.667,-0.233 1.369,-0.479 2.096,-0.733 0.717,-0.278 1.44,-0.612 2.183,-0.924 0.733,-0.335 1.45,-0.735 2.181,-1.101 0.703,-0.418 1.411,-0.828 2.082,-1.269 0.654,-0.467 1.324,-0.889 1.908,-1.383 0.608,-0.463 1.164,-0.947 1.676,-1.422 0.523,-0.462 0.971,-0.949 1.395,-1.382 0.825,-0.894 1.436,-1.697 1.839,-2.27 0.191,-0.291 0.348,-0.521 0.433,-0.672 0.093,-0.16 0.142,-0.245 0.142,-0.245 z"
           inkscape:connector-curvature="0" />
      </g>
      <g
         id="g44"
         transform="matrix(0.26458333,0,0,0.26458333,51.010216,85.315756)">
        <path
           id="path42"
           d="m 173.038,342.23 c 0,0 0.049,0.085 0.142,0.245 0.085,0.151 0.242,0.381 0.433,0.672 0.404,0.573 1.015,1.376 1.839,2.27 0.424,0.434 0.872,0.92 1.395,1.382 0.512,0.475 1.068,0.959 1.676,1.422 0.584,0.494 1.254,0.916 1.908,1.383 0.671,0.441 1.379,0.851 2.082,1.269 0.73,0.366 1.447,0.766 2.181,1.101 0.743,0.313 1.466,0.646 2.183,0.924 0.727,0.254 1.429,0.5 2.096,0.733 0.672,0.214 1.323,0.37 1.917,0.54 0.595,0.166 1.14,0.319 1.635,0.402 0.492,0.099 0.921,0.185 1.275,0.255 0.707,0.142 1.111,0.223 1.111,0.223 0,0 -0.407,-0.065 -1.119,-0.18 -0.356,-0.058 -0.789,-0.127 -1.286,-0.208 -0.5,-0.065 -1.051,-0.198 -1.654,-0.341 -0.602,-0.147 -1.261,-0.279 -1.946,-0.469 -0.679,-0.209 -1.396,-0.43 -2.137,-0.658 -0.733,-0.253 -1.475,-0.561 -2.239,-0.85 -0.754,-0.311 -1.495,-0.687 -2.251,-1.032 -0.729,-0.396 -1.465,-0.786 -2.166,-1.209 -0.684,-0.45 -1.385,-0.856 -2.001,-1.338 -0.64,-0.45 -1.229,-0.925 -1.775,-1.393 -0.556,-0.456 -1.037,-0.939 -1.493,-1.372 -0.888,-0.892 -1.559,-1.707 -2.009,-2.296 -0.217,-0.304 -0.389,-0.536 -0.501,-0.717 -0.107,-0.17 -0.165,-0.261 -0.165,-0.261 z"
           inkscape:connector-curvature="0" />
      </g>
      <polygon
         id="polygon46"
         points="160.064,355.876 160.635,352.714 159.123,350.402 157.54,352.714 "
         stroke-miterlimit="10"
         style="fill:#f68e65;stroke:#000000;stroke-miterlimit:10"
         transform="matrix(0.26458333,0,0,0.26458333,51.010216,85.315756)" />
      <polygon
         id="polygon48"
         points="168.901,355.876 168.331,352.714 169.843,350.402 171.427,352.714 "
         stroke-miterlimit="10"
         style="fill:#f68e65;stroke:#000000;stroke-miterlimit:10"
         transform="matrix(0.26458333,0,0,0.26458333,51.010216,85.315756)" />
      <polygon
         id="polygon50"
         points="149.433,356.242 146.491,357.867 160.635,357.867 160.064,355.876 "
         stroke-miterlimit="10"
         style="fill:#f68e65;stroke:#000000;stroke-miterlimit:10"
         transform="matrix(0.26458333,0,0,0.26458333,51.010216,85.315756)" />
      <polygon
         id="polygon52"
         points="179.533,356.242 182.476,357.867 168.331,357.867 168.901,355.876 "
         stroke-miterlimit="10"
         style="fill:#f68e65;stroke:#000000;stroke-miterlimit:10"
         transform="matrix(0.26458333,0,0,0.26458333,51.010216,85.315756)" />
      <text
         id="text114"
         font-size="12"
         style="font-size:3.17499995px;font-family:MyriadPro-Regular;stroke-width:0.26458332"
         x="85.243408"
         y="187.79749">FRONT VIEW</text>
    </g>
  </g>
</svg>
