<?xml version="1.0" encoding="UTF-8" standalone="no"?>
<!-- Created with Inkscape (http://www.inkscape.org/) -->

<svg
   xmlns:dc="http://purl.org/dc/elements/1.1/"
   xmlns:cc="http://creativecommons.org/ns#"
   xmlns:rdf="http://www.w3.org/1999/02/22-rdf-syntax-ns#"
   xmlns:svg="http://www.w3.org/2000/svg"
   xmlns="http://www.w3.org/2000/svg"
   xmlns:sodipodi="http://sodipodi.sourceforge.net/DTD/sodipodi-0.dtd"
   xmlns:inkscape="http://www.inkscape.org/namespaces/inkscape"
   width="210mm"
   height="297mm"
   viewBox="0 0 210 297"
   version="1.1"
   id="svg856"
   inkscape:version="0.92.3 (2405546, 2018-03-11)"
   sodipodi:docname="pant-front.svg">
  <defs
     id="defs850" />
  <sodipodi:namedview
     id="base"
     pagecolor="#ffffff"
     bordercolor="#666666"
     borderopacity="1.0"
     inkscape:pageopacity="0.0"
     inkscape:pageshadow="2"
     inkscape:zoom="0.24748737"
     inkscape:cx="659.58309"
     inkscape:cy="481.47105"
     inkscape:document-units="mm"
     inkscape:current-layer="layer1"
     showgrid="false"
     showguides="false"
     inkscape:window-width="1366"
     inkscape:window-height="705"
     inkscape:window-x="-8"
     inkscape:window-y="-8"
     inkscape:window-maximized="1" />
  <metadata
     id="metadata853">
    <rdf:RDF>
      <cc:Work
         rdf:about="">
        <dc:format>image/svg+xml</dc:format>
        <dc:type
           rdf:resource="http://purl.org/dc/dcmitype/StillImage" />
        <dc:title></dc:title>
      </cc:Work>
    </rdf:RDF>
  </metadata>
  <g
     inkscape:label="Layer 1"
     inkscape:groupmode="layer"
     id="layer1">
    <g
       id="g1427"
       transform="matrix(3.4711885,0,0,5.3571167,-41.277333,-2189.9825)">
      <path
         id="path2"
         d="m 15.317721,422.35811 c 0,0 24.869246,3.33402 54.813465,0 l 1.421077,8.27352 c 0,0 -10.861146,-2.46962 -26.087388,16.54784 h -5.582973 c 0,0 -12.485423,-17.04155 -25.884187,-16.42428 z"
         stroke-miterlimit="10"
         style="fill:#fbbb97;stroke:#000000;stroke-width:0.52916664;stroke-miterlimit:10"
         inkscape:connector-curvature="0" />
      <path
         id="path4"
         d="m 16.373938,422.35811 c 0,0 21.487341,-2.09973 53.225435,0 -2.64e-4,0 -36.271994,3.21046 -53.225435,0 z"
         stroke-miterlimit="10"
         style="fill:#f9c9b8;stroke:#000000;stroke-width:0.52916664;stroke-miterlimit:10"
         inkscape:connector-curvature="0" />
      <path
         id="path6"
         d="m 14.452798,430.75493 c 0,0 11.073342,-1.4822 25.429369,16.42427 0,0 -13.499042,-11.85492 -25.429369,-16.42427 z"
         stroke-miterlimit="10"
         style="fill:#f9c9b8;stroke:#000000;stroke-width:0.52916664;stroke-miterlimit:10"
         inkscape:connector-curvature="0" />
      <path
         id="path8"
         d="m 71.073367,430.56972 c 0,0 -11.073077,-1.48193 -25.429104,16.42401 -2.65e-4,0 13.498777,-11.85492 25.429104,-16.42401 z"
         stroke-miterlimit="10"
         style="fill:#f9c9b8;stroke:#000000;stroke-width:0.52916664;stroke-miterlimit:10"
         inkscape:connector-curvature="0" />
      <path
         id="path10"
         d="m 14.301457,429.0264 c 0,0 16.960849,-1.11151 26.724768,18.1528 h 3.422386 c 0,0 8.256058,-18.1528 26.524744,-18.77033 l -0.694267,-4.62413 c 0,0 -25.058688,4.88448 -55.03836,0 z"
         stroke-miterlimit="10"
         style="fill:#fbbb97;stroke:#000000;stroke-width:0.1984375;stroke-miterlimit:10"
         inkscape:connector-curvature="0" />
      <text
         id="text22"
         font-size="12"
         style="font-size:3.17499995px;font-family:MyriadPro-Regular;stroke-width:0.26458332"
         x="33.414692"
         y="455.02808">FRONT VIEW</text>
    </g>
  </g>
</svg>
