<?xml version="1.0" encoding="UTF-8" standalone="no"?>
<!-- Created with Inkscape (http://www.inkscape.org/) -->

<svg
   xmlns:dc="http://purl.org/dc/elements/1.1/"
   xmlns:cc="http://creativecommons.org/ns#"
   xmlns:rdf="http://www.w3.org/1999/02/22-rdf-syntax-ns#"
   xmlns:svg="http://www.w3.org/2000/svg"
   xmlns="http://www.w3.org/2000/svg"
   xmlns:sodipodi="http://sodipodi.sourceforge.net/DTD/sodipodi-0.dtd"
   xmlns:inkscape="http://www.inkscape.org/namespaces/inkscape"
   width="210mm"
   height="297mm"
   viewBox="0 0 210 297"
   version="1.1"
   id="svg1444"
   inkscape:version="0.92.3 (2405546, 2018-03-11)"
   sodipodi:docname="pant-back.svg">
  <defs
     id="defs1438" />
  <sodipodi:namedview
     id="base"
     pagecolor="#ffffff"
     bordercolor="#666666"
     borderopacity="1.0"
     inkscape:pageopacity="0.0"
     inkscape:pageshadow="2"
     inkscape:zoom="0.24748737"
     inkscape:cx="235.95909"
     inkscape:cy="670.55164"
     inkscape:document-units="mm"
     inkscape:current-layer="layer1"
     showgrid="false"
     inkscape:window-width="1366"
     inkscape:window-height="705"
     inkscape:window-x="-8"
     inkscape:window-y="-8"
     inkscape:window-maximized="1" />
  <metadata
     id="metadata1441">
    <rdf:RDF>
      <cc:Work
         rdf:about="">
        <dc:format>image/svg+xml</dc:format>
        <dc:type
           rdf:resource="http://purl.org/dc/dcmitype/StillImage" />
        <dc:title></dc:title>
      </cc:Work>
    </rdf:RDF>
  </metadata>
  <g
     inkscape:label="Layer 1"
     inkscape:groupmode="layer"
     id="layer1">
    <g
       id="g2027"
       transform="matrix(3.4434783,0,0,4.9316654,-686.10913,4.2951247)">
      <path
         id="path12"
         d="m 202.35017,9.4988981 c 0,0 44.71246,-2.5963562 54.81372,0 l 1.42108,8.2737849 c 0,0 -10.93655,2.877344 -26.08739,16.547307 h -5.58323 c 0,0 -17.15294,-13.974234 -25.88419,-16.424275 z"
         stroke-miterlimit="10"
         style="fill:#fbbb97;stroke:#000000;stroke-width:0.52916664;stroke-miterlimit:10"
         inkscape:connector-curvature="0" />
      <g
         id="g18"
         transform="matrix(0.26458333,0,0,0.26458333,115.34061,-62.119577)">
        <path
           id="path14"
           d="m 328.751,274.83 c 0,0 113.688,-9.666 206.817,0 l 4.222,20.654 c 0,0 -64.895,15.012 -101.278,68.012 h -12.238 c 0,0 -44.827,-52.258 -100.639,-66.961 z"
           inkscape:connector-curvature="0"
           style="fill:#fbbb97" />
        <path
           id="path16"
           d="m 328.751,274.83 c 8.599,-0.711 17.206,-1.313 25.819,-1.822 4.305,-0.281 8.614,-0.484 12.922,-0.729 l 12.928,-0.617 c 4.309,-0.203 8.621,-0.336 12.933,-0.508 4.311,-0.176 8.624,-0.254 12.937,-0.377 l 6.471,-0.168 6.471,-0.098 c 4.314,-0.051 8.627,-0.168 12.941,-0.16 l 12.944,-0.041 12.943,0.121 6.472,0.078 6.47,0.17 c 4.313,0.129 8.628,0.189 12.939,0.377 l 12.933,0.57 c 2.156,0.08 4.311,0.203 6.463,0.355 l 6.459,0.418 c 4.307,0.281 8.615,0.527 12.911,0.953 l 12.896,1.15 0.237,0.021 0.05,0.238 4.241,20.65 0.067,0.328 -0.329,0.08 c -2.498,0.615 -4.987,1.352 -7.453,2.127 -2.465,0.783 -4.918,1.609 -7.348,2.5 -2.436,0.877 -4.846,1.82 -7.246,2.787 -2.396,0.979 -4.773,2 -7.139,3.051 -2.358,1.068 -4.702,2.164 -7.023,3.311 -2.314,1.156 -4.623,2.328 -6.893,3.572 -1.143,0.607 -2.275,1.232 -3.395,1.883 -1.119,0.648 -2.26,1.264 -3.359,1.945 l -3.324,2.004 -3.272,2.09 c -1.1,0.682 -2.153,1.436 -3.229,2.152 -1.074,0.723 -2.146,1.447 -3.189,2.213 l -3.146,2.273 -3.082,2.359 c -1.04,0.77 -2.021,1.615 -3.029,2.426 -1,0.822 -2.02,1.619 -2.982,2.484 l -2.926,2.551 c -0.961,0.865 -1.895,1.762 -2.844,2.641 l -1.419,1.324 -1.372,1.373 -2.737,2.75 c -1.736,1.918 -3.563,3.756 -5.207,5.756 l -2.515,2.955 -2.399,3.051 -1.194,1.529 -1.135,1.574 -2.268,3.15 -0.088,0.121 h -0.143 l -12.238,-0.012 h -0.12 l -0.081,-0.094 c -3.359,-3.818 -6.908,-7.488 -10.539,-11.063 -3.636,-3.572 -7.367,-7.049 -11.189,-10.42 -1.912,-1.686 -3.839,-3.354 -5.802,-4.98 -1.948,-1.643 -3.938,-3.236 -5.933,-4.822 l -3.016,-2.352 -3.055,-2.297 c -2.057,-1.506 -4.105,-3.023 -6.21,-4.461 -2.083,-1.469 -4.212,-2.869 -6.341,-4.271 -2.154,-1.361 -4.289,-2.756 -6.49,-4.039 -2.178,-1.326 -4.398,-2.576 -6.62,-3.824 -1.107,-0.631 -2.247,-1.201 -3.37,-1.805 -1.123,-0.602 -2.25,-1.195 -3.4,-1.746 l -3.432,-1.686 -3.48,-1.582 c -1.152,-0.543 -2.336,-1.018 -3.512,-1.508 -1.182,-0.477 -2.343,-1.008 -3.543,-1.438 l -3.58,-1.342 c -1.193,-0.451 -2.414,-0.818 -3.62,-1.23 -2.405,-0.852 -4.878,-1.48 -7.321,-2.209 l -0.055,-0.016 0.008,-0.055 z m 0,0 -3.054,21.713 -0.046,-0.07 c 2.449,0.717 4.93,1.332 7.342,2.17 1.21,0.406 2.435,0.768 3.632,1.211 l 3.594,1.322 c 1.203,0.424 2.369,0.949 3.555,1.42 1.182,0.484 2.369,0.951 3.527,1.49 l 3.494,1.564 3.447,1.668 c 1.154,0.545 2.287,1.135 3.416,1.729 1.128,0.6 2.273,1.164 3.387,1.789 2.232,1.238 4.467,2.475 6.648,3.803 2.209,1.281 4.35,2.674 6.51,4.033 2.135,1.4 4.271,2.799 6.36,4.266 2.112,1.436 4.167,2.953 6.229,4.457 l 3.065,2.295 3.024,2.35 c 2.002,1.584 3.997,3.176 5.952,4.818 1.97,1.623 3.903,3.291 5.821,4.977 3.835,3.369 7.581,6.844 11.229,10.416 3.646,3.574 7.203,7.236 10.592,11.072 l -0.203,-0.092 12.238,-0.012 -0.229,0.121 2.271,-3.168 1.136,-1.582 1.196,-1.539 2.403,-3.066 2.519,-2.975 c 1.647,-2.01 3.478,-3.859 5.217,-5.787 l 2.743,-2.768 1.374,-1.381 1.421,-1.334 c 0.951,-0.883 1.888,-1.785 2.851,-2.656 l 2.933,-2.564 c 0.965,-0.871 1.986,-1.674 2.988,-2.502 1.01,-0.814 1.994,-1.664 3.035,-2.441 l 3.09,-2.373 3.154,-2.287 c 1.045,-0.771 2.119,-1.502 3.195,-2.229 1.079,-0.721 2.135,-1.48 3.237,-2.166 l 3.28,-2.104 3.331,-2.02 c 1.103,-0.686 2.246,-1.305 3.368,-1.957 1.121,-0.654 2.258,-1.283 3.403,-1.896 2.274,-1.254 4.589,-2.434 6.909,-3.598 2.326,-1.156 4.677,-2.262 7.041,-3.338 l 3.566,-1.568 3.598,-1.492 c 2.412,-0.965 4.832,-1.908 7.277,-2.783 2.441,-0.889 4.905,-1.713 7.383,-2.494 2.482,-0.775 4.969,-1.508 7.508,-2.127 l -0.262,0.408 -4.201,-20.658 0.287,0.26 -12.883,-1.174 c -4.289,-0.434 -8.596,-0.689 -12.897,-0.979 l -6.454,-0.43 c -2.15,-0.156 -4.303,-0.285 -6.457,-0.369 l -12.924,-0.596 c -4.309,-0.193 -8.622,-0.264 -12.932,-0.4 l -6.467,-0.184 -6.469,-0.09 -12.938,-0.146 -12.938,0.014 c -4.314,-0.016 -8.626,0.094 -12.939,0.135 l -6.469,0.086 -6.469,0.156 c -4.311,0.111 -8.624,0.186 -12.935,0.348 -4.311,0.146 -8.623,0.254 -12.933,0.434 l -12.93,0.543 c -4.307,0.219 -8.617,0.398 -12.924,0.654 -8.611,0.46 -17.22,1.013 -25.823,1.673 z"
           inkscape:connector-curvature="0" />
      </g>
      <text
         id="text20"
         font-size="12"
         style="font-size:3.17499995px;font-family:MyriadPro-Regular;stroke-width:0.26458332"
         x="221.32018"
         y="41.59206">BACK VIEW</text>
    </g>
  </g>
</svg>
